<svg width="32" height="32" viewBox="0 0 32 32" fill="none" xmlns="http://www.w3.org/2000/svg">
<rect width="32" height="32" rx="8" fill="#009C32"/>
<path d="M27.5938 15.5149C27.253 14.6868 26.4034 14.2314 25.4867 14.3924L23.6052 14.7144C23.2932 14.7696 23.0869 15.0548 23.1397 15.3539C23.1972 15.6529 23.4948 15.8507 23.8068 15.8001L25.6883 15.4781C26.1347 15.3999 26.413 15.6575 26.5234 15.9243C26.6338 16.1911 26.6146 16.5592 26.2307 16.7938L23.466 18.5097C23.2116 18.6707 22.8949 18.6799 22.6309 18.5419C22.3621 18.4039 22.2037 18.1463 22.2037 17.8519V12.2854C22.2037 11.9818 21.9493 11.7334 21.6277 11.7334C21.311 11.7334 21.0518 11.9818 21.0518 12.2854V17.8427C21.0518 18.5465 21.4358 19.163 22.0789 19.4988C22.3765 19.6552 22.6981 19.7334 23.0197 19.7334C23.3892 19.7334 23.7588 19.6322 24.09 19.4252L26.8546 17.7092C27.637 17.2262 27.9345 16.3429 27.5938 15.5149ZM17.8744 14.3878L15.9929 14.7098C15.6809 14.765 15.4745 15.0502 15.5273 15.3493C15.5849 15.6483 15.8825 15.8461 16.1945 15.7955L18.076 15.4735C18.5223 15.3953 18.8007 15.6529 18.9111 15.9197C19.0215 16.1865 19.0023 16.5546 18.6183 16.7892L15.8537 18.5051C15.5993 18.6661 15.2826 18.6753 15.0186 18.5373C14.7498 18.3993 14.5914 18.1417 14.5914 17.8473V13.6241C14.5914 12.9203 14.2074 12.3038 13.5643 11.968C12.9211 11.6322 12.1676 11.6598 11.5532 12.0416L4.60804 16.3567C3.82569 16.8444 3.53291 17.7276 3.87369 18.5557C4.21447 19.3838 5.06401 19.8392 5.98075 19.6782L12.0476 18.6339C12.3595 18.5787 12.5659 18.2935 12.5131 17.9945C12.4555 17.6954 12.158 17.4976 11.846 17.5482L5.77917 18.5925C5.33279 18.6707 5.05441 18.4131 4.94402 18.1463C4.83363 17.8795 4.85282 17.5114 5.2368 17.2768L12.182 12.9617C12.4363 12.8007 12.7531 12.7915 13.0171 12.9295C13.2859 13.0675 13.4443 13.3251 13.4443 13.6195V17.8427C13.4443 18.5465 13.8282 19.163 14.4714 19.4988C14.769 19.6552 15.0906 19.7334 15.4121 19.7334C15.7817 19.7334 16.1513 19.6322 16.4777 19.4252L19.2423 17.7092C20.0247 17.2216 20.3174 16.3383 19.9767 15.5103C19.6407 14.6822 18.7911 14.2314 17.8744 14.3878Z" fill="white"/>
</svg>
