<svg width="32" height="32" viewBox="0 0 32 32" fill="none" xmlns="http://www.w3.org/2000/svg">
<g clip-path="url(#clip0_79_10807)">
<path d="M0 0.395062V32H32V0L0 0.395062ZM13.6 23.232L12.3616 26.8263C7.716 25.2966 4.6192 20.9383 4.6192 16.0442C4.6192 11.151 7.716 6.86933 12.4384 5.26301L13.6776 8.85728C10.5808 9.85126 8.568 12.7565 8.568 15.9684C8.4904 19.4086 10.5032 22.238 13.6 23.232ZM19.3288 26.9788L18.168 23.3086C21.3416 22.3147 23.432 19.4086 23.432 16.1209C23.432 12.8332 21.3416 10.0038 18.2448 9.00978L19.484 5.33965C24.2064 6.86933 27.38 11.2277 27.38 16.1209C27.38 21.0908 24.1288 25.4499 19.3288 26.9788Z" fill="#00BEF0"/>
</g>
<defs>
<clipPath id="clip0_79_10807">
<rect width="32" height="32" rx="8" fill="white"/>
</clipPath>
</defs>
</svg>
