<svg width="32" height="32" viewBox="0 0 32 32" fill="none" xmlns="http://www.w3.org/2000/svg">
<g clip-path="url(#clip0_622_25396)">
<path d="M24.8889 0H7.11111C3.18375 0 0 3.18375 0 7.11111V24.8889C0 28.8162 3.18375 32 7.11111 32H24.8889C28.8162 32 32 28.8162 32 24.8889V7.11111C32 3.18375 28.8162 0 24.8889 0Z" fill="#FFDD2D"/>
<path fill-rule="evenodd" clip-rule="evenodd" d="M29.5001 14.1092L28.3413 14.1458C28.2428 14.1458 27.5312 14.1255 26.8404 13.6268C26.8921 13.6316 26.9435 13.6392 26.9963 13.6392C27.7068 13.6392 28.3956 13.2134 28.6709 12.6034L29.1694 11.5025C28.5438 11.5108 27.9724 11.4321 27.9724 11.4321C27.9678 11.4317 27.517 11.3737 26.9959 10.8439C26.6224 10.4642 26.1596 10.2629 25.659 10.2629C25.4396 10.2629 25.2439 10.3025 25.0748 10.3558C25.1015 10.2665 25.1259 10.1759 25.1404 10.0827C25.3001 9.05204 24.6343 8.26654 24.634 8.26727L23.7616 7.19239L23.2212 8.45513C23.2194 8.45876 23.0825 8.75504 22.8386 8.899C22.7653 8.52802 22.584 8.11061 22.197 7.71243C21.4674 6.96101 20.5797 6.84859 20.1152 6.84859C19.9003 6.84859 19.7465 6.8718 19.709 6.87797L18.6565 7.08359C18.7173 6.85004 18.8471 6.44206 19.0832 6.07508L19.6642 5.17497L18.2025 5.34034L17.7372 4.35648L16.8357 4.81886L16.0024 4L15.1712 4.81886L14.2679 4.35648L13.8033 5.34034L12.3421 5.17461L12.924 6.07543C13.1605 6.44206 13.2895 6.84896 13.3496 7.08251L12.3454 6.88558L12.3108 6.87979C12.2608 6.8718 12.1082 6.84859 11.8917 6.84859C11.4275 6.84859 10.5395 6.96101 9.81179 7.71205C9.42444 8.11024 9.24261 8.52802 9.16866 8.899C8.92633 8.75612 8.79042 8.46491 8.79042 8.46491L8.24894 7.19492L7.36348 8.27634C7.2549 8.41559 6.7218 9.15431 6.86645 10.0838C6.88139 10.1766 6.90581 10.2665 6.93204 10.3558C6.76405 10.3017 6.56802 10.2629 6.34901 10.2629C5.84798 10.2629 5.38558 10.4642 5.01099 10.8439C4.49138 11.3715 4.13781 11.4086 4.04756 11.431C3.9573 11.4534 3.57349 11.5159 2.83996 11.5025L3.33627 12.6034C3.61175 13.2134 4.3008 13.6392 5.01026 13.6392C5.06382 13.6392 5.11484 13.6316 5.16731 13.6268C4.4779 14.1255 3.76624 14.1458 3.68025 14.1462L2.5 14.1092L2.85746 15.2254C3.03748 15.8006 3.63908 16.7532 4.79017 16.8558C4.66482 17.3781 4.38716 17.9637 3.77717 18.2162L2.8979 18.5765L3.37744 19.4078C3.64782 19.856 4.28404 20.3804 5.18882 20.3804C5.38412 20.3797 5.57287 20.3602 5.75508 20.3216C5.80171 20.5266 5.85964 20.7319 5.92852 20.9356C6.1978 21.7339 5.96569 22.2901 5.96313 22.2964L5.52878 23.2014L6.49806 23.4556C6.51008 23.4594 6.80304 23.5394 7.16962 23.5394C7.33579 23.5394 7.49538 23.5223 7.6437 23.4869C7.75628 23.4608 7.86487 23.426 7.96873 23.3838C8.09444 23.6076 8.24676 23.8121 8.42421 23.9952C9.04549 24.6295 9.92585 24.9509 11.0405 24.9509H11.0442L11.84 24.9406L10.1959 25.6213L11.4442 26.2219C11.8983 26.4418 12.4354 26.7017 12.9834 26.9008L12.8271 27.3255L13.2578 27.5205C13.2961 27.538 14.1236 27.9061 15.4988 27.9847C15.4988 27.9847 15.8311 28 16.014 28C16.1966 28 16.5245 27.9836 16.5245 27.9836C17.8914 27.9031 18.7124 27.538 18.7506 27.5205L19.182 27.3248L19.0245 26.8997C19.5876 26.6948 20.1454 26.4244 20.5804 26.2128L21.8052 25.6206L20.1666 24.9406L20.9657 24.9509C22.0821 24.9509 22.9625 24.6292 23.5828 23.9941C23.7595 23.8124 23.9115 23.6087 24.0379 23.3838C24.142 23.426 24.2514 23.4608 24.3643 23.4876C24.5127 23.5223 24.6715 23.5394 24.8377 23.5394C25.198 23.5394 25.4939 23.4604 25.5019 23.4578L26.4752 23.2014L26.051 22.3129C26.0412 22.2901 25.8091 21.7339 26.0788 20.9349C26.1468 20.731 26.2044 20.5259 26.2516 20.3216C26.4345 20.3602 26.6254 20.3797 26.8224 20.3804C27.9751 20.3804 28.5275 19.5739 28.6341 19.3984L29.1093 18.5758L28.23 18.2169C27.6187 17.9637 27.3417 17.3784 27.2178 16.8566C28.354 16.7579 28.9636 15.8045 29.1499 15.2257L29.5001 14.1092Z" fill="#FEFEFE"/>
<path fill-rule="evenodd" clip-rule="evenodd" d="M17.9234 6.71872C17.3932 6.42498 16.7055 6.2578 16.003 6.2578C15.3041 6.2578 14.6165 6.42498 14.0849 6.71872C14.0364 6.55734 13.969 6.36116 13.8772 6.1559L14.0769 6.17947L14.2868 6.20159L14.3771 6.01083L14.6417 5.44836L15.1321 5.70112L15.3223 5.79723L15.4736 5.64855L16.003 5.12598L16.5336 5.64855L16.6855 5.79723L16.8757 5.70112L17.3636 5.44836L17.6318 6.01083L17.7204 6.20159L17.9307 6.17947L18.131 6.1559C18.0391 6.36116 17.971 6.55734 17.9234 6.71872ZM16.003 7.41762C15.0716 7.41871 14.3735 7.72224 14.2215 8.07945L16.003 8.77972L17.7849 8.07945C17.6344 7.72224 16.9358 7.41871 16.003 7.41762ZM16.0219 25.9396H16.0201H16.0047H15.9873H15.9858C15.4221 25.9432 14.6441 25.8278 14.2703 25.7194L13.8199 26.9322C14.1165 27.0372 15.1229 27.2394 16.0047 27.2394C16.8847 27.2394 17.8916 27.0372 18.1878 26.9322L17.7381 25.7194C17.3628 25.8278 16.586 25.9432 16.0219 25.9396ZM17.9113 25.3368C18.3465 25.2051 19.0951 24.9215 19.4304 24.7327L19.2066 25.4614L19.9652 25.7124C19.5065 25.9416 18.9506 26.1555 18.2768 26.3386L17.9113 25.3368ZM12.5772 24.7327L12.8017 25.4614L12.0424 25.7124C12.5007 25.9416 13.0589 26.1555 13.73 26.3386L14.0962 25.3368C13.6619 25.2051 12.9124 24.9215 12.5772 24.7327ZM26.7211 12.7638C26.8126 12.7954 26.9051 12.8092 26.997 12.8092C27.3945 12.8092 27.7778 12.5535 27.9102 12.2612C27.9102 12.2612 27.1821 12.2173 26.3986 11.4264C26.1497 11.17 25.8855 11.0935 25.6594 11.0935C25.3078 11.0935 25.0439 11.2777 25.0439 11.2777C25.5545 11.5483 25.8457 11.9071 26.0903 12.2085C26.2987 12.4654 26.4733 12.6806 26.7211 12.7638ZM5.28397 12.7638C5.19506 12.7954 5.10214 12.8092 5.01031 12.8092C4.61312 12.8092 4.2287 12.5535 4.09789 12.2616C4.09789 12.2616 4.82557 12.2173 5.60791 11.4264C5.85824 11.1696 6.12169 11.0935 6.34942 11.0935C6.69888 11.0935 6.96343 11.2781 6.96343 11.2781C6.45422 11.5481 6.16279 11.9062 5.91774 12.2073C5.70825 12.4647 5.53268 12.6804 5.28397 12.7638ZM26.4361 18.5368C25.704 18.1779 25.2423 17.2248 25.1305 16.8817C25.0089 18.7711 24.0822 20.0827 22.9984 21.3455C22.4359 22.0001 22.2398 22.6365 22.2398 22.6365C22.2398 22.6365 22.3485 21.9153 22.8345 21.3284C23.8457 20.1197 24.8066 18.6148 24.8781 16.8744C24.9268 15.66 24.6135 14.6753 24.1238 13.8634C24.3977 14.7087 24.3588 15.7437 23.4288 16.7102C23.4288 16.7102 25.2807 14.502 22.6921 12.238C21.9566 11.6263 21.1716 11.1807 20.5693 10.8389V10.8388C20.3232 10.6992 20.1076 10.5768 19.9383 10.4676C22.0468 11.1522 23.0765 10.3987 23.0765 10.3987C22.4034 10.9793 21.5314 10.9695 20.9911 10.8857C21.138 10.9568 21.2903 11.0311 21.4542 11.1189C23.232 12.0799 24.8299 13.6614 25.1024 15.8514V15.8347C25.5161 17.9853 26.4361 18.5368 26.4361 18.5368ZM26.9773 16.0313C26.994 16.0324 27.0078 16.0324 27.0246 16.0324C28.0157 16.0324 28.3513 14.976 28.3513 14.976H28.3321C28.1502 14.976 26.6766 14.9332 25.6352 13.6161C25.6061 13.5792 25.5771 13.5426 25.5485 13.5061V13.5061C24.901 12.6854 24.3405 11.9747 23.2781 11.6879L23.1687 11.669L23.1453 11.558C23.1143 11.3898 23.231 11.2313 23.4944 11.0608C25.026 10.0628 23.9856 8.78959 23.9856 8.78959C23.9856 8.78959 23.5483 9.8079 22.57 9.8079C22.5582 9.8079 22.5463 9.80754 22.5342 9.80719C22.5222 9.80681 22.5097 9.80646 22.4974 9.80646L22.4758 9.80534C22.3723 9.8 22.2718 9.79483 22.171 9.77382L21.991 9.73863C21.991 9.73863 22.2697 8.98324 21.5963 8.29023C21.0891 7.76692 20.4722 7.67807 20.1158 7.67807C19.9366 7.67807 19.8224 7.70093 19.8224 7.70093C20.1607 8.1408 20.4052 8.87119 20.015 9.32196C19.8841 9.4717 19.6806 9.56633 19.48 9.65951C19.1623 9.8071 18.8525 9.95106 18.8525 10.3047C18.8525 10.5495 19.0825 10.8346 19.4942 11.0906C20.7335 11.867 21.9636 12.898 22.4756 14.279C23.1143 16.0016 22.3943 17.145 21.3668 17.801C21.3668 17.801 21.6893 18.0963 22.1565 18.1339C22.2516 18.143 22.3444 18.1476 22.4311 18.1476C23.418 18.1476 23.9284 17.6868 23.9284 17.6868C23.9284 17.6868 23.8443 18.3233 23.3309 18.914C22.8567 19.4595 22.235 19.7811 21.2862 19.794C21.2862 19.794 21.2564 20.2326 21.6761 20.6118C21.9454 20.8513 22.5661 20.9288 22.5661 20.9288C22.5661 20.9288 21.4036 21.1635 21.2754 22.8719C21.2057 23.7978 20.9678 24.1197 20.9678 24.1197H20.9885C23.6861 24.1197 23.6173 21.8173 23.6173 21.8173C23.6173 21.8173 23.8045 22.4987 24.5574 22.6769C24.648 22.7 24.7451 22.7094 24.8375 22.7094C25.0795 22.7094 25.2902 22.6529 25.2902 22.6529C25.2902 22.6529 24.8958 21.8257 25.2873 20.6685C25.6112 19.7082 25.5591 18.9971 25.5591 18.9971C25.5591 18.9971 25.9223 19.5435 26.8231 19.5487H26.8326C27.5828 19.5487 27.9097 18.9825 27.9097 18.9825C26.1111 18.2394 26.2889 15.8416 26.2889 15.8416C26.2889 15.8416 26.5225 16.015 26.9773 16.0313ZM6.87607 16.8814C6.99851 18.7711 7.92514 20.0827 9.00846 21.3451C9.57072 22.0001 9.7693 22.6362 9.7693 22.6362C9.7693 22.6362 9.65926 21.9149 9.17099 21.329C8.16199 20.1197 7.2011 18.6145 7.13042 16.8745C7.07977 15.6596 7.3935 14.675 7.88397 13.8634C7.61031 14.7091 7.64784 15.7437 8.57885 16.7106C8.57885 16.7106 6.72667 14.502 9.31673 12.238C10.0516 11.6266 10.8355 11.1813 11.4373 10.8395C11.6835 10.6996 11.8992 10.5771 12.0686 10.4676C9.96098 11.1523 8.93122 10.3983 8.93122 10.3983C9.60388 10.9793 10.4755 10.9695 11.0166 10.8857L11.0042 10.8917C10.8614 10.961 10.7118 11.0336 10.5535 11.1193C8.7749 12.0799 7.17815 13.6618 6.9045 15.8515V15.8344C6.49165 17.985 5.57193 18.5368 5.57193 18.5368C6.30326 18.1779 6.7642 17.2244 6.87607 16.8814ZM10.3323 20.6116C10.063 20.8513 9.44174 20.9288 9.44174 20.9288C9.44174 20.9288 10.6052 21.1631 10.7331 22.8719C10.8027 23.7978 11.0385 24.1194 11.0385 24.1194H11.0195C8.32125 24.1194 8.39049 21.817 8.39049 21.817C8.39049 21.817 8.2021 22.4987 7.45037 22.6769C7.36036 22.7 7.26416 22.7094 7.17015 22.7094C6.9282 22.7094 6.71867 22.6529 6.71867 22.6529C6.71867 22.6529 7.11076 21.826 6.71977 20.6685C6.39655 19.7082 6.44903 18.9967 6.44903 18.9967C6.44903 18.9967 6.0861 19.5435 5.18461 19.5491H5.1755C4.42558 19.5491 4.09801 18.9825 4.09801 18.9825C5.89552 18.2395 5.71952 15.8417 5.71952 15.8417C5.71952 15.8417 5.48596 16.015 5.0301 16.0313C5.01335 16.0324 4.9984 16.0324 4.98274 16.0324C3.99124 16.0324 3.65527 14.976 3.65527 14.976H3.67531C3.85824 14.976 5.33037 14.9332 6.37142 13.6161C6.40077 13.579 6.42989 13.5421 6.45883 13.5055L6.45888 13.5054C7.10637 12.6853 7.66724 11.975 8.72754 11.6879L8.83904 11.6687L8.86274 11.5581C8.89371 11.3898 8.77746 11.231 8.51438 11.0609C6.98286 10.0629 8.02281 8.78998 8.02281 8.78998C8.02281 8.78998 8.45753 9.80793 9.43883 9.80793C9.45049 9.80793 9.46187 9.80767 9.47344 9.8074H9.47346C9.48539 9.80711 9.4975 9.80685 9.51024 9.80685L9.53872 9.80528C9.63934 9.79979 9.73849 9.79439 9.83673 9.77383L10.0175 9.73867C10.0175 9.73867 9.73726 8.98327 10.4121 8.29024C10.919 7.76695 11.5362 7.67775 11.8919 7.67775C12.0723 7.67775 12.1849 7.70095 12.1849 7.70095C11.8474 8.14084 11.6029 8.8712 11.9932 9.32162C12.1238 9.47156 12.3273 9.56628 12.5276 9.65954C12.8448 9.80719 13.1541 9.95115 13.1541 10.3048C13.1541 10.5492 12.9246 10.8346 12.5128 11.0906C11.2735 11.867 10.0437 12.8984 9.53211 14.279C8.89371 16.0019 9.61373 17.1454 10.6424 17.801C10.6424 17.801 10.3196 18.0963 9.85131 18.1339C9.75622 18.143 9.66438 18.1475 9.57584 18.1475C8.59017 18.1475 8.07966 17.6868 8.07966 17.6868C8.07966 17.6868 8.16457 18.3233 8.6747 18.9144C9.15168 19.4595 9.77296 19.7811 10.7218 19.7942C10.7218 19.7942 10.7517 20.2326 10.3323 20.6116ZM15.3943 12.4439H16.0308H16.6655V12.878C16.5165 12.696 16.225 12.7333 16.225 12.7333V13.3588C16.225 13.3588 16.2363 13.667 16.3445 13.8001H16.0308H15.7153C15.8253 13.667 15.8351 13.3588 15.8351 13.3588V12.7333C15.8351 12.7333 15.5447 12.696 15.3943 12.878V12.4439ZM14.0087 12.5093C14.0528 12.5565 14.0962 12.6076 14.1385 12.6595L14.1443 12.6665V12.6665C14.152 12.6758 14.1595 12.6848 14.1676 12.6961C14.2062 12.7472 14.2452 12.8016 14.2831 12.8575C14.288 12.8638 14.2927 12.8708 14.2976 12.878L14.3023 12.885L14.3049 12.8888L14.3066 12.8912L14.3086 12.8941C14.3538 12.9619 14.3965 13.0323 14.4387 13.1048C14.8279 13.7732 15.4503 14.1732 16.003 14.1739C16.5562 14.1732 17.1782 13.7732 17.5684 13.1048C17.6115 13.0305 17.6552 12.9583 17.7004 12.8908C17.7073 12.8814 17.7142 12.8716 17.7204 12.8615C17.7587 12.8038 17.7991 12.748 17.8411 12.6936C17.8468 12.6861 17.8523 12.6792 17.8576 12.6725L17.8665 12.6613C17.9099 12.6076 17.9547 12.5561 18.0002 12.5075C18.0034 12.5044 18.0064 12.5014 18.0093 12.4985V12.4985C18.0135 12.4942 18.0176 12.49 18.0221 12.4861C18.2203 12.2845 18.4564 12.1304 18.7659 12.0451L18.6281 11.9654H18.6208L18.0731 11.6491L17.5105 11.3282L16.0074 12.1427L16.003 12.1391L16.0001 12.1427L14.4967 11.3282L13.9344 11.6491L13.3857 11.9654H13.3795L13.2406 12.0451C13.5503 12.1304 13.7857 12.2827 13.9847 12.4847C13.9881 12.4879 13.9912 12.4914 13.9942 12.4948C13.9987 12.4998 14.0031 12.5048 14.0087 12.5093ZM15.5239 10.0923V9.68404L14.7847 9.37437C14.7847 9.37437 14.7912 9.61151 15.1239 9.86896C15.304 10.0104 15.4156 10.0467 15.4402 10.0547C15.4431 10.0556 15.4449 10.0562 15.4452 10.0564L15.5239 10.0923ZM15.8731 9.05895V11.6018L14.6758 10.9741L14.2469 8.51063L15.8731 9.05895ZM16.4832 9.68404L17.2225 9.37437C17.2225 9.37437 17.2163 9.61151 16.8825 9.86896C16.7022 10.011 16.5904 10.047 16.5663 10.0548C16.5636 10.0556 16.562 10.0562 16.5615 10.0564L16.4832 10.0923V9.68404ZM17.3313 10.9741L17.7588 8.51063L16.1336 9.05895V11.6018L17.3313 10.9741ZM14.0221 17.5641C13.9241 17.5641 13.7317 17.5525 13.5736 17.4952C13.3991 17.431 13.1389 17.1123 13.1987 16.7612C13.2741 16.7152 13.449 16.6173 13.6126 16.6173C13.7386 16.6173 13.8246 16.676 13.8851 16.8026C13.9376 16.9125 14.0323 16.9853 14.0986 17.027C14.0964 17.1297 14.0866 17.2888 14.0589 17.4299C14.0527 17.4614 14.0447 17.4905 14.0363 17.5191C14.0331 17.5315 14.0293 17.5426 14.0261 17.5521L14.0243 17.5575C14.0235 17.5598 14.0228 17.562 14.0221 17.5641ZM16.2956 17.0257L16.2956 17.0257L16.2614 17.0589C16.2549 17.0653 16.2505 17.0695 16.2487 17.0714L16.2126 17.107L14.3447 17.0776C14.3436 17.2618 14.3134 17.4185 14.2843 17.5331C14.2795 17.5523 14.2744 17.5723 14.2693 17.5922L16.4913 17.9896C16.7224 17.8291 17.3586 17.3666 17.6056 17.1853C17.426 16.9246 17.4089 16.6145 17.4497 16.3962C17.3313 16.3215 17.2416 16.2366 17.1702 16.1467C16.9133 16.4252 16.4465 16.8789 16.2959 17.0254L16.2957 17.0256L16.2956 17.0257ZM16.2116 14.5296C16.5804 14.493 16.9929 14.3356 17.4236 13.9109H20.2326C20.1102 14.233 20.0089 14.5815 20.0089 14.9281L20.01 17.166C19.5399 17.0873 19.4841 16.584 19.4823 16.5622L19.474 16.4593L19.373 16.4505C19.1682 16.4313 19.0334 16.3454 18.919 16.2348C18.6887 16.0052 18.6884 15.6339 18.6887 15.631C18.6887 15.6313 18.6886 15.6317 18.6884 15.6323C18.688 15.6331 18.6875 15.6341 18.687 15.6353C18.6855 15.6383 18.6832 15.6424 18.6802 15.6478C18.6384 15.7243 18.466 16.0395 18.7259 16.3802C18.8477 16.5405 19.0251 16.6391 19.2542 16.6783C19.3081 16.9572 19.5166 17.3517 20.01 17.4116V18.5075H18.6235C17.9844 18.1528 18.2555 17.5298 18.2676 17.5033L18.3218 17.3854L18.1993 17.339C17.507 17.0837 17.6976 16.3965 17.7067 16.3664L17.7348 16.2667L17.6407 16.2224C17.069 15.9584 17.1463 15.2484 17.1539 15.2186C16.9783 15.3604 16.9149 15.6498 17.0359 15.9334C16.974 16.0042 16.8919 16.0888 16.8012 16.182L16.8011 16.1822L16.801 16.1823L16.7863 16.1974C16.1941 16.0469 16.1755 15.5055 16.1755 15.4812L16.1741 15.3978L16.0965 15.3677C15.8654 15.2825 15.7066 15.1548 15.6286 14.9833C15.5408 14.7936 15.5718 14.5942 15.5958 14.4984C15.6636 14.5136 15.7306 14.5238 15.7955 14.5296C15.8622 14.5365 15.9299 14.5405 15.9992 14.5405H16.0032H16.0083C16.0772 14.5405 16.1442 14.5365 16.2116 14.5296ZM13.6918 14.9365L13.6539 16.3612L13.8172 16.3858L14.215 15.0188L14.0132 14.5982L13.6918 14.9365ZM14.4763 20.1252C14.4733 20.1716 14.5072 20.2107 14.5534 20.2118C14.5982 20.2159 14.6368 20.1814 14.6412 20.1361C14.643 20.0925 14.6099 20.052 14.5633 20.0502C14.5178 20.0461 14.4803 20.0813 14.4763 20.1252ZM18.1188 21.4783C18.1058 21.4747 18.0919 21.4735 18.0798 21.4735C17.9997 21.4735 17.9646 21.5439 17.9646 21.5439C18.0183 21.6872 18.0318 21.7901 18.0439 21.8833C18.0576 21.9871 18.0697 22.0792 18.1341 22.2022C18.2107 22.3489 18.338 22.4728 18.416 22.5485C18.4302 22.5626 18.443 22.5748 18.4534 22.5855C18.4534 22.5855 18.435 22.7163 18.4162 22.8147L18.2427 23.7115C18.1323 23.7267 18.0164 23.7347 17.8962 23.7402L18.0781 22.8774C18.1046 22.7528 17.9538 22.6698 17.7529 22.5592C17.5416 22.4429 17.2747 22.2961 17.0996 22.0378C16.9327 22.2246 16.619 22.2804 16.3035 22.2804C16.0156 22.2804 15.7281 22.2344 15.5528 22.1999C15.5087 22.1935 15.4665 22.188 15.4246 22.188C15.3236 22.188 15.2314 22.2191 15.1676 22.3254L15.1177 22.4099L14.1758 22.1887L13.9411 22.5757C13.9083 22.6379 13.9062 22.6906 13.9593 22.7491L14.0228 22.8182C13.979 22.9546 13.783 23.1613 13.783 23.1613L13.6431 22.9873C13.5323 22.8639 13.5505 22.6379 13.6653 22.4292L14.0391 21.8019L14.8372 21.916L14.7136 21.6349C14.5971 21.3752 14.6859 21.0662 14.7593 20.8107L14.7593 20.8106C14.791 20.7 14.8199 20.5995 14.8281 20.5172C14.8189 20.5995 14.7428 20.6184 14.6542 20.6184C14.6112 20.6184 14.5654 20.6139 14.5229 20.6099C14.4862 20.6061 14.452 20.6029 14.4243 20.6029C14.4006 20.6029 14.3806 20.6054 14.37 20.6131L14.1536 20.7439L13.9834 20.5942C13.9626 20.5656 13.9561 20.4973 14.006 20.4468L14.4006 20.0063L13.9346 19.4641L14.5876 19.7905L14.7872 19.5501C14.8419 19.6031 14.8179 19.743 14.8179 19.743C15.0212 19.7482 15.5933 20.0621 15.6235 20.7969C15.6246 20.8193 15.6246 20.8443 15.6246 20.8691C15.6246 20.8691 15.6304 20.8778 15.6403 20.8931C15.6807 20.9482 15.7922 21.0895 15.9332 21.103L16.8362 21.1917H16.8395C16.8776 21.1917 16.9302 21.1747 16.9949 21.1535C17.0984 21.1199 17.2328 21.0762 17.3886 21.0762C17.526 21.0762 17.679 21.111 17.8427 21.2136C17.8427 21.2136 17.925 21.1491 18.058 21.1418C18.0681 21.1411 18.0798 21.1411 18.0889 21.1411C18.4292 21.1411 18.6022 21.3981 18.7778 21.6593C18.811 21.7089 18.8446 21.7587 18.8793 21.8068C19.0422 22.0378 19.2612 22.3798 19.2612 22.3798C19.1803 22.4746 19.1056 22.5277 18.9799 22.5277C18.9456 22.5277 18.9063 22.5252 18.8633 22.5162C18.6137 22.4707 18.487 22.1574 18.3771 21.8861C18.296 21.6858 18.224 21.5082 18.1188 21.4783ZM13.2673 22.2893C13.2673 22.2893 13.5799 22.1613 13.6076 22.0707L13.5657 21.9665C13.5361 21.8991 13.5405 21.8259 13.5974 21.7859L13.9344 21.5542L14.4973 21.6619C14.4973 21.6619 14.3956 21.535 14.4055 21.3652L13.8677 21.2522L13.3613 21.559C13.1437 21.721 13.1281 21.9853 13.1999 22.1423L13.2673 22.2893ZM17.5854 23.7453C17.4634 23.7453 17.3515 23.7467 17.2509 23.7512L17.5155 22.9313C17.5432 22.8552 17.4572 22.764 17.3718 22.6733C17.3306 22.6296 17.2896 22.586 17.2615 22.5444C17.3919 22.6257 17.729 22.804 17.8914 22.8755C17.875 22.9019 17.5854 23.7453 17.5854 23.7453Z" fill="white"/>
<path fill-rule="evenodd" clip-rule="evenodd" d="M18.2295 18.5077H11.998V14.9284C11.998 14.5817 11.896 14.2332 11.7754 13.9111H14.5837C14.8508 14.1752 15.1121 14.3398 15.361 14.4301C15.3289 14.5574 15.2859 14.8203 15.4058 15.0828C15.5038 15.2943 15.6809 15.4571 15.9378 15.5659C15.9651 15.827 16.132 16.2201 16.5908 16.3938C16.3893 16.5958 16.1939 16.7862 16.1149 16.8627L14.2507 16.8334C14.2084 16.8123 14.1363 16.7648 14.1042 16.6981C14.1022 16.693 14.0996 16.6892 14.097 16.6853C14.0947 16.6819 14.0924 16.6785 14.0903 16.6741L14.3946 16.7231C14.4012 16.7238 14.4077 16.7238 14.4143 16.7238C14.473 16.7238 14.5243 16.6836 14.5338 16.6237C14.5436 16.5563 14.4988 16.4946 14.4332 16.4848L14.0586 16.4261L14.474 14.9987L14.0805 14.1752L13.4505 14.8381L13.4122 16.322L12.9888 16.2553C12.9232 16.2426 12.8609 16.2897 12.8492 16.3557C12.8394 16.421 12.8839 16.483 12.9502 16.4946L13.128 16.5215C13.0646 16.5574 13.0227 16.586 13.0176 16.59L12.9815 16.615L12.9717 16.6593C12.8686 17.0756 13.1014 17.4709 13.3536 17.6475L13.3441 17.7001C13.3339 17.7639 13.3488 17.8263 13.3874 17.8789C13.4242 17.9323 13.4796 17.9641 13.5434 17.9753C13.5562 17.9779 13.57 17.979 13.5827 17.979C13.6913 17.979 13.7868 17.9038 13.813 17.7936C13.9071 17.8053 13.9931 17.8071 14.0517 17.8071H14.1009L16.5467 18.2473L16.5886 18.2197C16.7828 18.0844 17.5261 17.5459 17.7696 17.3668C17.8362 17.4245 17.9112 17.476 18.0021 17.5191C17.9226 17.7824 17.9178 18.1875 18.2295 18.5077ZM11.998 18.7491H20.0094L20.011 21.7483C20.011 22.7424 19.4247 23.4364 18.5002 23.6627L18.6551 22.8603L18.657 22.8489C18.665 22.8041 18.6737 22.7539 18.6801 22.7115C18.7239 22.7296 18.7703 22.7449 18.8197 22.7539C18.8776 22.7648 18.9308 22.7703 18.9797 22.7703C19.2158 22.7703 19.3535 22.6466 19.4451 22.541L19.5639 22.4032L19.4668 22.2524C19.4581 22.2375 19.2428 21.8995 19.078 21.6681C19.0456 21.6227 19.0147 21.5771 18.9834 21.5285C18.7953 21.2485 18.5599 20.8983 18.0888 20.8983L18.0462 20.899C17.9688 20.904 17.9022 20.9189 17.8479 20.9395C17.7 20.8711 17.5466 20.8348 17.388 20.8348C17.1931 20.8348 17.0288 20.8882 16.9194 20.9255C16.9098 20.9282 16.9004 20.9312 16.8915 20.9339C16.8714 20.9401 16.8532 20.9458 16.8378 20.9483L15.9567 20.862C15.9458 20.8603 15.9094 20.8391 15.8656 20.7874V20.7829L16.0562 20.7068C16.0026 20.0747 15.393 19.6859 15.0527 19.5543C15.0378 19.4908 15.0071 19.4277 14.9539 19.3762L14.7645 19.1975L14.5979 19.3957L14.5159 19.4974L13.2814 18.9925L14.0849 19.9961L13.7682 20.4736C13.652 20.5966 13.7799 20.7191 13.7799 20.7191L14.1075 20.944L14.4467 20.8178C14.455 20.8178 14.4625 20.819 14.47 20.8203C14.4734 20.8208 14.4767 20.8213 14.4802 20.8217C14.4708 20.8503 14.4601 20.926 14.45 20.9971C14.4421 21.0528 14.4346 21.1056 14.4285 21.1303L13.8393 21.0151L13.2205 21.3628C12.9024 21.5955 12.8591 21.9801 12.9771 22.2434L13.0456 22.3927L13.1429 22.6037L13.3601 22.5147C13.363 22.5143 13.3659 22.5127 13.3674 22.5113C13.2898 22.7586 13.3215 22.9939 13.46 23.1481L13.5919 23.3123L13.7668 23.5321L13.9588 23.3273C14.0149 23.2715 14.1986 23.0668 14.255 22.8924L14.2962 22.7586L14.2029 22.6556L14.1869 22.6375L14.2929 22.4642L15.0618 22.6444L15.2345 22.6843L15.3263 22.5331L15.3766 22.4508C15.3861 22.4331 15.3883 22.4304 15.424 22.4304C15.451 22.4304 15.4783 22.4331 15.5078 22.4398C15.7982 22.4942 16.0657 22.5214 16.3029 22.5214C16.5336 22.5214 16.6713 22.5127 16.8349 22.4587C16.8349 22.4587 17.2478 22.9255 17.262 22.9426L17.0095 23.7196L16.9978 23.766C16.5193 23.8048 16.2861 23.9093 16.0045 24.1893C15.5956 23.7856 15.3052 23.7429 14.2058 23.7429C12.8897 23.7429 11.998 22.9747 11.998 21.7483V18.7491Z" fill="#FFDD2D"/>
<path fill-rule="evenodd" clip-rule="evenodd" d="M14.2861 6.20238L14.0762 6.18025L13.8765 6.15632C13.9684 6.36229 14.0358 6.55776 14.0843 6.7195C14.6159 6.42613 15.3035 6.25895 16.0024 6.25895C16.7049 6.25895 17.3929 6.42613 17.9227 6.7195C17.9707 6.55776 18.0386 6.36229 18.1304 6.15632L17.93 6.18025L17.7197 6.20238L17.6312 6.01198L17.3634 5.44915L16.8751 5.70192L16.6849 5.79838L16.5329 5.64898L16.0024 5.12675L15.4729 5.64898L15.3217 5.79838L15.1315 5.70192L14.641 5.44915L14.3765 6.01198L14.2861 6.20238ZM18.109 7.19209C17.6939 6.86208 16.9418 6.55202 16.0024 6.55202C15.0645 6.55202 14.3153 6.86208 13.8974 7.19209C13.8974 7.19209 13.7746 6.45301 13.3533 5.80133L14.1098 5.88691L14.5052 5.04992L15.2671 5.44014L16.0024 4.71484L16.7403 5.44014L17.5004 5.04992L17.8966 5.88691L18.6538 5.80133C18.2321 6.45301 18.109 7.19209 18.109 7.19209ZM14.563 20.0508C14.5174 20.0465 14.4796 20.0821 14.4759 20.1262C14.4727 20.1722 14.5069 20.2115 14.5531 20.2126C14.5979 20.2161 14.6365 20.1822 14.6409 20.1368C14.6427 20.0933 14.6096 20.0526 14.563 20.0508ZM18.2767 26.3393L17.9108 25.3374C18.3458 25.2058 19.0946 24.9223 19.4298 24.7333L19.2065 25.4625L19.9647 25.713C19.506 25.9422 18.9499 26.1559 18.2767 26.3393ZM16.0044 27.2399C15.1226 27.2399 14.1161 27.0382 13.8195 26.9331L14.2699 25.7199C14.6434 25.8287 15.4213 25.9438 15.9854 25.9402H15.9869H16.0044H16.0197H16.0215C16.5852 25.9438 17.3621 25.8287 17.7378 25.7199L18.1874 26.9331C17.8907 27.0382 16.8844 27.2399 16.0044 27.2399ZM12.042 25.713L12.8013 25.4623L12.5765 24.7333C12.9113 24.9221 13.6611 25.2056 14.0954 25.3374L13.7293 26.3391C13.0585 26.1557 12.4999 25.9422 12.042 25.713ZM19.9988 25.4904L19.5371 25.3146L19.6646 24.8396L19.8049 24.3224C19.8049 24.3224 18.9873 24.764 17.8347 25.0956C17.5078 25.1887 17.2604 25.2312 17.2604 25.2312V25.5836C17.2604 25.5836 16.6439 25.6903 16.0215 25.6903H16.0139H16.0044H15.9924H15.9854C15.362 25.6903 14.7465 25.5836 14.7465 25.5836V25.2312C14.7465 25.2312 14.4987 25.1887 14.1722 25.0956C13.0197 24.764 12.2031 24.3224 12.2031 24.3224L12.3412 24.8396L12.4709 25.3146L12.0082 25.4904L11.4947 25.6815C11.551 25.7087 11.6094 25.737 11.6697 25.7662C12.2385 26.0414 12.9702 26.3955 13.645 26.5791L13.469 27.0579C13.469 27.0579 14.4157 27.4872 15.9924 27.4911V27.4919H15.9971H16.0044H16.0102H16.0139V27.4911C17.5927 27.4872 18.5384 27.0579 18.5384 27.0579L18.3617 26.5791C19.042 26.3939 19.7812 26.0355 20.3506 25.7592C20.4058 25.7326 20.4594 25.7066 20.5112 25.6815L19.9988 25.4904ZM27.9092 18.9834C27.9092 18.9834 27.5825 19.5498 26.8319 19.5498H26.8226C25.9215 19.5445 25.5586 18.9976 25.5586 18.9976C25.5586 18.9976 25.6104 19.7091 25.2861 20.6689C24.8955 21.827 25.2897 22.6535 25.2897 22.6535C25.2897 22.6535 25.0788 22.71 24.8369 22.71C24.7442 22.71 24.6477 22.7009 24.5562 22.6776C23.8038 22.4993 23.6164 21.8175 23.6164 21.8175C23.6164 21.8175 23.6854 24.1203 20.9878 24.1203H20.9666C20.9666 24.1203 21.2045 23.7983 21.2745 22.8728C21.4027 21.1644 22.5652 20.9294 22.5652 20.9294C22.5652 20.9294 21.9446 20.8517 21.6762 20.612C21.2552 20.233 21.285 19.7946 21.285 19.7946C22.2344 19.7816 22.8564 19.4599 23.33 18.9148C23.8434 18.324 23.9274 17.6877 23.9274 17.6877C23.9274 17.6877 23.4171 18.1479 22.4303 18.1479C22.3437 18.1479 22.2511 18.1439 22.1556 18.1345C21.6888 18.097 21.3659 17.8015 21.3659 17.8015C22.3931 17.1462 23.114 16.0021 22.4749 14.2795C21.9629 12.8993 20.7327 11.8679 19.4938 11.0911C19.0817 10.8351 18.8522 10.55 18.8522 10.3053C18.8522 9.95168 19.1617 9.80784 19.479 9.66032C19.6795 9.56711 19.8833 9.47244 20.0141 9.32249C20.4043 8.87171 20.1595 8.14171 19.8218 7.70181C19.8218 7.70181 19.9354 7.67859 20.1151 7.67859C20.4717 7.67859 21.0888 7.76745 21.5956 8.29111C22.2689 8.98414 21.9898 9.73952 21.9898 9.73952L22.1702 9.77435C22.273 9.79612 22.3755 9.80108 22.4811 9.80622L22.4966 9.80699C22.5087 9.80699 22.521 9.80734 22.533 9.8077C22.5453 9.80807 22.5576 9.80843 22.5695 9.80843C23.5476 9.80843 23.9848 8.79047 23.9848 8.79047C23.9848 8.79047 25.0248 10.0634 23.4936 11.0614C23.2301 11.2322 23.114 11.3907 23.1446 11.5586L23.1682 11.6695L23.2772 11.6888C24.3387 11.9752 24.8989 12.685 25.5453 13.5039L25.5457 13.5043L25.5492 13.5087L25.5513 13.5113L25.5521 13.5123L25.554 13.5147L25.556 13.5173L25.5574 13.519C25.5828 13.5514 25.6086 13.5839 25.6344 13.6166C26.6761 14.9341 28.149 14.9765 28.3309 14.9765H28.351C28.351 14.9765 28.0146 16.0329 27.0239 16.0329C27.007 16.0329 26.9928 16.0329 26.9768 16.0318C26.5217 16.0155 26.2881 15.8425 26.2881 15.8425C26.2881 15.8425 26.1106 18.2399 27.9092 18.9834ZM27.0241 16.3564C28.239 16.3564 28.6456 15.1263 28.6619 15.0737L28.7979 14.64L28.3425 14.6542H28.3409C28.1803 14.6542 26.8393 14.619 25.8893 13.4168L25.7997 13.3055L25.7951 13.2996C25.1759 12.5159 24.5873 11.771 23.5368 11.4309C23.5675 11.4037 23.6109 11.37 23.6706 11.3312C24.2296 10.966 24.5546 10.5214 24.6362 10.0057C24.7558 9.23004 24.258 8.611 24.2362 8.58599L23.898 8.17003L23.6866 8.66359L23.6863 8.66419C23.6683 8.70382 23.3128 9.48535 22.5698 9.48535H22.5137C22.5005 9.4846 22.4875 9.48389 22.4745 9.4832C22.4376 9.48121 22.4011 9.47923 22.3657 9.47628C22.3919 9.12416 22.3275 8.57836 21.8297 8.06595C21.2317 7.44981 20.4986 7.35698 20.1153 7.35698C19.9346 7.35698 19.8075 7.37673 19.7697 7.38263C19.7645 7.38341 19.7611 7.38396 19.7592 7.38418L19.2484 7.48499L19.564 7.8984C19.8105 8.21717 20.0351 8.80539 19.7691 9.11218C19.6889 9.20462 19.5286 9.28057 19.3702 9.35559L19.3421 9.36894C18.9985 9.52633 18.5281 9.74645 18.5281 10.3053C18.5281 10.6665 18.81 11.0451 19.3213 11.3668C20.8338 12.3133 21.7674 13.3015 22.1704 14.392C22.7942 16.0696 21.9801 17.0266 21.1906 17.5307L20.8356 17.7573L21.1457 18.041L21.146 18.0412C21.1896 18.0792 21.5681 18.4106 22.1277 18.4583C22.2342 18.4648 22.3355 18.4711 22.4306 18.4711C22.7896 18.4711 23.0959 18.4149 23.3448 18.339C23.2763 18.4583 23.1917 18.5806 23.0865 18.7027C22.6345 19.2232 22.079 19.46 21.2802 19.473L20.9832 19.4778L20.9606 19.774C20.9578 19.8339 20.9352 20.3832 21.458 20.8508C21.5378 20.9233 21.6344 20.9827 21.7361 21.0309C21.3812 21.3486 21.021 21.902 20.9515 22.8492C20.8925 23.6405 20.7034 23.9329 20.7009 23.9361L20.3725 24.4348L20.9657 24.4428C21.9457 24.4428 22.6955 24.174 23.2155 23.6405C23.5231 23.3251 23.6987 22.9687 23.8026 22.6535C23.9727 22.7982 24.1928 22.9251 24.4802 22.9925C24.5892 23.0179 24.708 23.0312 24.837 23.0312C25.1062 23.0312 25.3334 22.9759 25.3688 22.9674L25.3713 22.9667L25.7497 22.8666L25.5825 22.5153L25.5817 22.5135C25.5615 22.4663 25.2596 21.7662 25.5942 20.7742C25.7407 20.3386 25.8153 19.9487 25.8518 19.6453C26.0905 19.7687 26.4097 19.8709 26.8225 19.8723C27.7458 19.8723 28.1606 19.1957 28.1901 19.1477L28.1912 19.1459L28.3759 18.8261L28.0338 18.6856C26.9165 18.2241 26.6696 16.9845 26.62 16.314C26.7209 16.3332 26.8363 16.351 26.9665 16.3546L27.0241 16.3564ZM26.3985 11.4273C26.1489 11.1706 25.885 11.0941 25.6587 11.0941C25.3071 11.0941 25.0436 11.279 25.0436 11.279C25.5542 11.5494 25.8454 11.9081 26.09 12.2094C26.2984 12.4661 26.4729 12.6812 26.7206 12.7644C26.812 12.796 26.9042 12.8098 26.9963 12.8098C27.3935 12.8098 27.7769 12.5541 27.9096 12.2625C27.9096 12.2625 27.1816 12.2183 26.3985 11.4273ZM25.8378 12.4123C25.6063 12.1269 25.3421 11.8049 24.8891 11.5648L24.4239 11.3157L24.8561 11.0129L24.8616 11.0093C24.9179 10.9735 25.2356 10.7713 25.6587 10.7713C26.0191 10.7713 26.354 10.9189 26.6306 11.1993C27.3032 11.8829 27.9078 11.938 27.9297 11.9387L28.3993 11.9663L28.205 12.3949C28.0123 12.8225 27.5033 13.1311 26.9965 13.1311C26.866 13.1311 26.7387 13.1115 26.6193 13.0705C26.2854 12.9606 26.0708 12.6978 25.8461 12.4227L25.8378 12.4123ZM25.1019 15.8354V15.8517C24.8292 13.6621 23.2319 12.0806 21.4536 11.1196C21.2897 11.0318 21.1373 10.9578 20.9905 10.8867C21.5313 10.9701 22.4033 10.9799 23.0758 10.3993C23.0758 10.3993 22.0465 11.1529 19.9378 10.4682C20.1069 10.5775 20.3225 10.6999 20.5686 10.8395C21.1709 11.1814 21.956 11.6269 22.6914 12.2387C25.2801 14.5027 23.4282 16.7108 23.4282 16.7108C24.3581 15.7444 24.3967 14.7098 24.1231 13.8641C24.6132 14.676 24.9266 15.6606 24.8774 16.8751C24.8059 18.6154 23.8454 20.1201 22.8338 21.3292C22.3478 21.9162 22.2395 22.6373 22.2395 22.6373C22.2395 22.6373 22.436 22.0008 22.9983 21.3463C24.0815 20.0835 25.0086 18.7726 25.1295 16.8824C25.2418 17.2254 25.7035 18.1784 26.4354 18.5375C26.4354 18.5375 25.5154 17.9859 25.1019 15.8354ZM8.38954 21.8175C8.38954 21.8175 8.32067 24.1203 11.0186 24.1203H11.0379C11.0379 24.1203 10.8018 23.7983 10.7325 22.8728C10.6043 21.164 9.44117 20.9294 9.44117 20.9294C9.44117 20.9294 10.0621 20.8519 10.3314 20.612C10.7511 20.233 10.7213 19.7946 10.7213 19.7946C9.77203 19.7816 9.15075 19.4599 8.67377 18.9148C8.16362 18.3242 8.07908 17.6877 8.07908 17.6877C8.07908 17.6877 8.58922 18.1479 9.57489 18.1479C9.66344 18.1479 9.75526 18.1439 9.85073 18.1345C10.3186 18.0972 10.6418 17.8015 10.6418 17.8015C9.61315 17.1462 8.89276 16.0025 9.53116 14.2795C10.0428 12.8993 11.2726 11.8679 12.5122 11.0911C12.924 10.8351 13.1532 10.5501 13.1532 10.3053C13.1532 9.95173 12.8441 9.80787 12.527 9.66028C12.3266 9.56702 12.123 9.47225 11.9922 9.32213C11.6023 8.87171 11.8465 8.14135 12.1835 7.70183C12.1835 7.70183 12.0717 7.67861 11.8913 7.67861C11.5349 7.67861 10.9184 7.76747 10.4112 8.29113C9.73596 8.98414 10.0165 9.73954 10.0165 9.73954L9.83615 9.77435C9.73583 9.79561 9.63457 9.80085 9.53235 9.80615L9.50931 9.80736C9.4966 9.80736 9.48463 9.80763 9.47279 9.80791H9.47276C9.4612 9.80818 9.44977 9.80844 9.43788 9.80844C8.45695 9.80844 8.02188 8.79086 8.02188 8.79086C8.02188 8.79086 6.98227 10.0634 8.51343 11.0614C8.77688 11.2318 8.89276 11.3903 8.86179 11.5586L8.83846 11.6695L8.72696 11.6888C7.66598 11.9759 7.10508 12.6863 6.45733 13.5067C6.42856 13.5431 6.39964 13.5798 6.37046 13.6166C5.32979 14.9341 3.85766 14.9765 3.67473 14.9765H3.65432C3.65432 14.9765 3.99066 16.0329 4.98216 16.0329C4.99782 16.0329 5.01276 16.0329 5.02917 16.0318C5.48501 16.0155 5.71859 15.8425 5.71859 15.8425C5.71859 15.8425 5.89459 18.2399 4.09741 18.9834C4.09741 18.9834 4.42465 19.5495 5.17491 19.5495H5.18365C6.08552 19.5445 6.44808 18.9976 6.44808 18.9976C6.44808 18.9976 6.39562 19.7091 6.71882 20.6689C7.1098 21.827 6.71773 22.6535 6.71773 22.6535C6.71773 22.6535 6.92689 22.71 7.16957 22.71C7.26323 22.71 7.35942 22.7009 7.44941 22.6773C8.20152 22.4993 8.38954 21.8175 8.38954 21.8175ZM11.3048 23.9342C11.3053 23.9351 11.3056 23.9356 11.3056 23.9358L11.634 24.4348L11.0407 24.4428C10.0609 24.4428 9.31172 24.1736 8.79028 23.6407C8.48383 23.3251 8.30748 22.9687 8.20435 22.6535C8.03528 22.7982 7.81301 22.9251 7.5255 22.9925C7.41765 23.0179 7.29848 23.0312 7.16986 23.0312C6.89509 23.0312 6.66225 22.9735 6.63596 22.9669L6.63567 22.9667L6.25633 22.8666L6.42431 22.5153L6.42547 22.5127C6.44909 22.457 6.74543 21.7596 6.41229 20.7742C6.26581 20.3383 6.19112 19.9487 6.15468 19.6453C5.91599 19.7687 5.59717 19.8709 5.18685 19.8719C4.25517 19.8719 3.83967 19.1861 3.8158 19.1468L3.81532 19.1459L3.63093 18.8257L3.97199 18.6856C5.0892 18.2241 5.33699 16.9845 5.38764 16.314C5.28488 16.3332 5.16938 16.351 5.04111 16.3546L4.98245 16.3564C3.76684 16.3564 3.36129 15.1263 3.34525 15.0738L3.20605 14.64L3.66373 14.6542C3.82442 14.6542 5.16755 14.619 6.11677 13.4168L6.20641 13.3055L6.21279 13.2974C6.83137 12.5145 7.41907 11.7707 8.46998 11.431C8.43939 11.4038 8.39748 11.37 8.33663 11.3312C7.77764 10.966 7.45226 10.5214 7.37137 10.0058C7.25267 9.24471 7.73025 8.63447 7.76659 8.58805L7.76819 8.58599L8.10998 8.17004L8.3206 8.66359C8.33407 8.69479 8.68826 9.48535 9.43816 9.48535H9.49318C9.50579 9.48464 9.51825 9.48396 9.53059 9.48329H9.5306H9.53062H9.53066C9.56796 9.48126 9.60428 9.47929 9.6404 9.47628C9.61489 9.1238 9.68012 8.57874 10.1782 8.0656C10.7762 7.44981 11.5079 7.35698 11.8916 7.35698C12.0736 7.35698 12.1998 7.37689 12.2367 7.3827C12.2415 7.38345 12.2448 7.38396 12.2465 7.38418L12.7599 7.48499L12.4429 7.89842C12.1955 8.21682 11.971 8.80539 12.2374 9.11219C12.3167 9.20364 12.4745 9.27863 12.6312 9.35314L12.6645 9.36894C13.0084 9.52633 13.4774 9.74647 13.4774 10.3053C13.4774 10.6665 13.1976 11.0451 12.6863 11.3668C11.1715 12.3133 10.2395 13.3015 9.83644 14.392C9.2137 16.0696 10.0245 17.0262 10.817 17.5307L11.1715 17.7573L10.8607 18.041C10.8188 18.078 10.4391 18.4104 9.87798 18.4583C9.77231 18.4648 9.67174 18.4711 9.57517 18.4711C9.21516 18.4711 8.91053 18.4149 8.66202 18.339C8.73126 18.4583 8.8158 18.5802 8.92036 18.7027C9.37185 19.2229 9.92899 19.46 10.7252 19.473L11.0243 19.4778L11.0444 19.774C11.048 19.8339 11.0706 20.3832 10.5481 20.8508C10.4679 20.9233 10.3728 20.9827 10.2697 21.0309C10.6253 21.3486 10.9854 21.902 11.056 22.8492C11.1143 23.611 11.2906 23.9102 11.3048 23.9342ZM5.60748 11.4269C5.85781 11.1705 6.12127 11.0937 6.34865 11.0937C6.69846 11.0937 6.96337 11.2786 6.96337 11.2786C6.45423 11.5489 6.16284 11.9068 5.91788 12.2078C5.70822 12.4653 5.53258 12.6811 5.28355 12.7644C5.19462 12.7959 5.10207 12.8097 5.00988 12.8097C4.61306 12.8097 4.22863 12.554 4.09747 12.2625C4.09747 12.2625 4.8255 12.2182 5.60748 11.4269ZM5.00973 13.1311C5.14017 13.1311 5.26698 13.1118 5.38723 13.0708C5.72237 12.9604 5.93706 12.697 6.1617 12.4215L6.1692 12.4123L6.17574 12.4043C6.40694 12.1212 6.66719 11.8026 7.11661 11.5648L7.58303 11.3156L7.14977 11.0128L7.14394 11.0091C7.08705 10.9729 6.77075 10.7713 6.34849 10.7713C5.98737 10.7713 5.65213 10.9185 5.37557 11.1992C4.70291 11.8832 4.09985 11.9383 4.07798 11.9387L3.60865 11.9662L3.80141 12.3949C3.99491 12.8224 4.50396 13.1311 5.00973 13.1311ZM7.88339 13.8641C7.39292 14.6761 7.07955 15.6603 7.1302 16.8752C7.20052 18.6156 8.16104 20.1205 9.17039 21.3292C9.65868 21.9157 9.76837 22.6373 9.76837 22.6373C9.76837 22.6373 9.57012 22.0008 9.00824 21.3459C7.92492 20.0835 6.99829 18.7719 6.87585 16.8824C6.76362 17.2255 6.30268 18.1786 5.57171 18.5375C5.57171 18.5375 6.49107 17.9861 6.9039 15.8351V15.8522C7.17756 13.6621 8.77468 12.0806 10.5533 11.1196C10.6995 11.041 10.8381 10.9732 10.9701 10.9085L11.016 10.8861C10.4756 10.9702 9.60365 10.98 8.93064 10.3994C8.93064 10.3994 9.96038 11.153 12.0684 10.4683C11.8994 10.5775 11.6843 10.6996 11.4387 10.8391L11.4387 10.8391C10.8366 11.181 10.0518 11.6267 9.31615 12.2388C6.72645 14.5028 8.579 16.7113 8.579 16.7113C7.64689 15.7445 7.60973 14.7095 7.88339 13.8641ZM15.394 12.4448V12.8789C15.5445 12.6968 15.8349 12.7342 15.8349 12.7342V13.3597C15.8349 13.3597 15.825 13.6679 15.715 13.801H16.0305H16.3442C16.236 13.6679 16.2247 13.3597 16.2247 13.3597V12.7342C16.2247 12.7342 16.5162 12.6968 16.6652 12.8789V12.4448H16.0305H15.394ZM15.4401 10.0559C15.416 10.0481 15.3042 10.0118 15.1235 9.86939C14.7905 9.6123 14.784 9.3755 14.784 9.3755L15.5236 9.68482V10.0935L15.4449 10.0576C15.4445 10.0573 15.4429 10.0568 15.4401 10.0559H15.4401ZM16.8821 9.86939C17.2162 9.6123 17.2228 9.3755 17.2228 9.3755L16.4828 9.68482V10.0935L16.5611 10.0576C16.5615 10.0573 16.5631 10.0568 16.5659 10.0559C16.5899 10.0481 16.7017 10.0118 16.8821 9.86939ZM14.221 8.08018L16.0025 8.78044L17.7844 8.08018C17.6338 7.72297 16.9353 7.4198 16.0025 7.4187C15.0711 7.4198 14.373 7.72297 14.221 8.08018ZM16.1333 11.6026L17.331 10.9752L17.7581 8.51099L16.1333 9.06003V11.6026ZM18.6203 11.9659L18.0726 11.6497L17.5099 11.3288L16.0069 12.1433L16.0025 12.14L15.9996 12.1433L14.4965 11.3288L13.9339 11.6497L13.3851 11.9659H13.3793L13.2404 12.0461C13.5498 12.1309 13.7848 12.2833 13.9845 12.4856C13.9877 12.4886 13.9906 12.4919 13.9935 12.4953C13.9979 12.5004 14.0025 12.5055 14.0082 12.5099C14.0523 12.557 14.096 12.6085 14.1379 12.66C14.1397 12.6623 14.1416 12.6645 14.1434 12.6666C14.1513 12.6762 14.1591 12.6855 14.1671 12.697C14.2057 12.7478 14.2447 12.8026 14.2826 12.858C14.2873 12.8642 14.2919 12.8712 14.2967 12.8783C14.3004 12.8839 14.3041 12.8895 14.3081 12.895C14.3533 12.9625 14.3959 13.0332 14.4382 13.1057C14.8273 13.7741 15.4497 14.1737 16.0025 14.1745C16.556 14.1737 17.178 13.7741 17.5679 13.1057C17.6109 13.0314 17.6546 12.9589 17.6998 12.8918C17.7064 12.8823 17.7136 12.8722 17.7198 12.8624C17.7581 12.8047 17.7985 12.7485 17.8404 12.6945C17.845 12.6885 17.8497 12.6827 17.8541 12.6771C17.8582 12.6718 17.8623 12.6668 17.866 12.6618C17.9094 12.6085 17.9542 12.5567 17.9997 12.5081C18.0033 12.5048 18.0066 12.5014 18.01 12.4981C18.0138 12.4942 18.0177 12.4904 18.0216 12.4871C18.2202 12.2851 18.4559 12.1309 18.7652 12.0461L18.6274 11.9659H18.6203ZM20.0082 14.9288C20.0082 14.5821 20.1094 14.2336 20.2319 13.9115H17.4229C16.9929 14.3362 16.58 14.494 16.2109 14.5302C16.1442 14.5371 16.0764 14.5415 16.0079 14.5415H16.0025H15.9985C15.93 14.5415 15.8614 14.5371 15.7951 14.5302C15.7306 14.5248 15.6629 14.5146 15.5951 14.499C15.571 14.5948 15.5401 14.7939 15.6279 14.9839C15.7066 15.1554 15.8647 15.2834 16.0961 15.3683L16.1741 15.3984L16.1752 15.4818C16.1752 15.5068 16.1934 16.0479 16.7855 16.198L16.7891 16.1943C16.8843 16.0968 16.9707 16.0082 17.0351 15.9344C16.9142 15.6504 16.9776 15.361 17.1536 15.2192C17.1459 15.2493 17.0687 15.959 17.64 16.2227L17.7344 16.2677L17.7063 16.3677C17.6972 16.3975 17.5067 17.0843 18.1986 17.34L18.3211 17.3857L18.2671 17.5043C18.2548 17.5311 17.9837 18.1541 18.6228 18.5077H20.0093V17.4129C19.5167 17.3527 19.3074 16.9585 19.2536 16.6789C19.0248 16.6401 18.8472 16.5411 18.7252 16.3808C18.4655 16.0398 18.6378 15.7248 18.6795 15.6484C18.6845 15.6393 18.6877 15.6336 18.6881 15.6316C18.6877 15.6348 18.6881 16.0066 18.9186 16.2357C19.0324 16.346 19.1682 16.4319 19.3723 16.4512L19.4733 16.4606L19.4824 16.5628C19.4841 16.585 19.5393 17.088 20.0093 17.1667L20.0082 14.9288ZM18.6548 22.8606L18.5 23.6631C19.4244 23.4367 20.0107 22.7427 20.0107 21.7487L20.0093 18.7496H11.9975V21.7487C11.9975 22.9756 12.8895 23.7432 14.2057 23.7432C15.3054 23.7432 15.5951 23.7861 16.0043 24.1896C16.286 23.9098 16.5188 23.8053 16.9976 23.7665L17.0089 23.7198L17.2618 22.9436C17.2476 22.9255 16.8347 22.4591 16.8347 22.4591C16.6708 22.5132 16.533 22.5223 16.3027 22.5223C16.0655 22.5223 15.7977 22.4947 15.5076 22.4403C15.4785 22.4337 15.4512 22.4312 15.4238 22.4312C15.3881 22.4312 15.3863 22.4337 15.3765 22.4511L15.3265 22.5335L15.2347 22.6847L15.0613 22.6447L14.2928 22.4647L14.1875 22.638L14.2031 22.6565L14.296 22.7591L14.2545 22.8926C14.1984 23.0673 14.0147 23.2718 13.9586 23.3276L13.7666 23.5333L13.5917 23.3128L13.4601 23.1486C13.322 22.9944 13.29 22.7591 13.368 22.5114C13.3661 22.5132 13.3629 22.5143 13.3599 22.515L13.1431 22.6042L13.0458 22.3935L12.977 22.244C12.8589 21.9804 12.9023 21.596 13.2204 21.3631L13.8391 21.0158L14.4283 21.1311C14.4347 21.1059 14.4423 21.0517 14.4504 20.9948C14.4603 20.9247 14.4708 20.8506 14.4801 20.8222C14.4763 20.8216 14.4726 20.8211 14.4689 20.8204C14.4616 20.8191 14.4542 20.8177 14.4462 20.8177L14.1073 20.9439L13.7797 20.7199C13.7797 20.7199 13.6522 20.5966 13.7677 20.4741L14.0843 19.9964L13.2816 18.993L14.5158 19.4977L14.5981 19.3962L14.7646 19.1978L14.9538 19.3767C15.0073 19.4282 15.0379 19.4911 15.0529 19.5546C15.3925 19.686 16.0025 20.0751 16.0564 20.7075L15.8655 20.7838V20.7877C15.9096 20.8396 15.9453 20.8606 15.9566 20.8627L16.838 20.9491C16.8526 20.9463 16.8696 20.9409 16.8885 20.9352C16.8984 20.9322 16.9088 20.929 16.9196 20.9258C17.0286 20.8892 17.1929 20.8351 17.3882 20.8351C17.5467 20.8351 17.6998 20.8711 17.8477 20.94C17.9021 20.9198 17.9688 20.9045 18.0463 20.8997L18.0886 20.8986C18.5599 20.8986 18.7946 21.2481 18.9825 21.5279L18.9832 21.529C19.0145 21.5779 19.0454 21.6229 19.0779 21.6686C19.2429 21.8999 19.4577 22.2376 19.4667 22.2527L19.5636 22.4037L19.4449 22.5415C19.3533 22.6471 19.2154 22.7706 18.9791 22.7706C18.9307 22.7706 18.8779 22.7653 18.8196 22.7543C18.7697 22.7448 18.7238 22.7301 18.6801 22.7119C18.6731 22.758 18.6632 22.8131 18.6548 22.8606ZM13.607 22.0711L13.5654 21.9672C13.5355 21.8999 13.5396 21.8266 13.5968 21.7868L13.9338 21.5553L14.4967 21.6627C14.4967 21.6627 14.395 21.5358 14.4049 21.3662L13.8675 21.2529L13.3607 21.5598C13.1431 21.7219 13.1275 21.9861 13.1996 22.1432L13.2667 22.2901C13.2667 22.2901 13.5796 22.1621 13.607 22.0711ZM18.2424 23.7125L18.4155 22.8152C18.4347 22.7173 18.453 22.5861 18.453 22.5861C18.4433 22.5763 18.4317 22.5651 18.4187 22.5525C18.341 22.4769 18.2114 22.3512 18.1334 22.2035C18.069 22.0803 18.0569 21.988 18.0433 21.8839C18.0312 21.7905 18.0177 21.6878 17.9643 21.5445C17.9643 21.5445 17.999 21.4743 18.0792 21.4743C18.0914 21.4743 18.1053 21.4757 18.1185 21.4792C18.2235 21.5089 18.2953 21.6863 18.3764 21.8865C18.4861 22.1578 18.613 22.4712 18.863 22.5171C18.9058 22.5255 18.945 22.5285 18.9791 22.5285C19.1053 22.5285 19.18 22.4755 19.2605 22.3804C19.2605 22.3804 19.0418 22.0389 18.879 21.8081C18.8445 21.7601 18.8113 21.7107 18.778 21.6613C18.602 21.3994 18.4289 21.1416 18.0886 21.1416C18.0792 21.1416 18.0674 21.1416 18.0577 21.1431C17.9243 21.1493 17.8422 21.2142 17.8422 21.2142C17.6787 21.1119 17.5256 21.0771 17.3883 21.0771C17.2323 21.0771 17.0977 21.1208 16.9942 21.1546C16.9296 21.1756 16.8771 21.1928 16.8391 21.1928H16.8355L15.9333 21.1036C15.7919 21.0904 15.68 20.9491 15.6399 20.8933C15.6301 20.8783 15.6246 20.8693 15.6246 20.8693C15.6246 20.8453 15.6246 20.82 15.6232 20.7978C15.5926 20.0631 15.0208 19.7487 14.8171 19.7436C14.8171 19.7436 14.8412 19.6044 14.7862 19.5507L14.5868 19.7911L13.9339 19.4648L14.4003 20.0069L14.0056 20.4479C13.9557 20.4983 13.9619 20.5658 13.9827 20.5944L14.1532 20.7445L14.3697 20.6143C14.3802 20.606 14.4003 20.6039 14.4236 20.6039C14.4513 20.6039 14.4854 20.6071 14.5221 20.6106C14.5646 20.6147 14.6106 20.6191 14.6539 20.6191C14.7421 20.6191 14.8182 20.6005 14.8273 20.5182C14.8192 20.6005 14.7904 20.7009 14.7587 20.8115C14.6854 21.067 14.5968 21.3758 14.7133 21.6355L14.8372 21.9169L14.0388 21.8021L13.6653 22.4302C13.5498 22.6391 13.5319 22.865 13.6424 22.9882L13.7823 23.1623C13.7823 23.1623 13.9783 22.9557 14.022 22.8193L13.9586 22.75C13.9051 22.6911 13.908 22.6391 13.9408 22.5763L14.1747 22.19L15.117 22.4106L15.1673 22.3263C15.2311 22.2206 15.3229 22.1889 15.4238 22.1889C15.4658 22.1889 15.5084 22.1937 15.5525 22.201C15.7274 22.2353 16.0149 22.281 16.3027 22.281C16.6183 22.281 16.9324 22.2248 17.0993 22.0389C17.274 22.2967 17.5407 22.4435 17.752 22.5598C17.9531 22.6705 18.1039 22.7535 18.0774 22.8783L17.8955 23.7404C18.0157 23.7356 18.132 23.7276 18.2424 23.7125ZM17.2505 23.7518C17.3507 23.7479 17.4633 23.7464 17.5846 23.7464C17.5846 23.7464 17.8747 22.9027 17.8911 22.8759C17.7285 22.8047 17.3915 22.6266 17.2611 22.545C17.2892 22.587 17.3305 22.6309 17.3719 22.6748C17.4571 22.7653 17.5429 22.8561 17.5147 22.9324L17.2505 23.7518ZM13.6912 14.9374L13.6536 16.3618L13.8165 16.3868L14.2144 15.0194L14.0125 14.5991L13.6912 14.9374ZM14.0977 17.0277C14.0318 16.986 13.9371 16.9131 13.8842 16.8033C13.8245 16.6767 13.7381 16.618 13.6124 16.618C13.4485 16.618 13.2736 16.7159 13.1982 16.7619C13.1384 17.1133 13.3986 17.4317 13.5731 17.4959C13.7312 17.5531 13.9232 17.5651 14.0216 17.5651C14.0229 17.5608 14.0245 17.5561 14.0262 17.551C14.0293 17.5419 14.0327 17.5316 14.0358 17.5201C14.0442 17.4915 14.0522 17.4621 14.0587 17.4309C14.0861 17.2895 14.0959 17.1303 14.0977 17.0277ZM16.4907 17.9902C16.7218 17.8296 17.3584 17.3672 17.605 17.1862C17.4254 16.9251 17.4083 16.6151 17.4487 16.3975C17.331 16.3224 17.2414 16.2372 17.1696 16.1473C16.8968 16.4433 16.3874 16.9367 16.271 17.0493C16.2587 17.0613 16.2508 17.069 16.2481 17.0716L16.212 17.1079L14.3445 17.0782C14.343 17.2628 14.3132 17.4191 14.284 17.534C14.2812 17.5455 14.2781 17.5572 14.275 17.569C14.2729 17.577 14.2708 17.5851 14.2687 17.5931L16.4907 17.9902ZM15.3604 14.4301C15.1123 14.3402 14.8507 14.1755 14.5832 13.9115H11.7749C11.8955 14.2336 11.9975 14.5821 11.9975 14.9288V18.5077H18.2292C17.9178 18.1879 17.9227 17.7829 18.0011 17.5202C17.9108 17.4767 17.8362 17.4249 17.7694 17.3676C17.5256 17.5463 16.783 18.0846 16.5881 18.2202L16.5465 18.2474L14.1011 17.8081H14.0512C13.9925 17.8081 13.9069 17.8056 13.8129 17.7944C13.7867 17.9043 13.6912 17.979 13.5822 17.979C13.5698 17.979 13.556 17.9783 13.5432 17.9758C13.4795 17.9649 13.4241 17.9326 13.3869 17.8792C13.3486 17.827 13.3337 17.7647 13.3443 17.7008L13.353 17.6479C13.1012 17.4713 12.8684 17.0764 12.9715 16.6597L12.9814 16.6154L13.0174 16.5904C13.0222 16.5864 13.0644 16.5578 13.1275 16.5222L12.95 16.495C12.8833 16.4834 12.8385 16.4214 12.8491 16.3565C12.8604 16.2905 12.923 16.2426 12.9886 16.2553L13.4121 16.3224L13.4507 14.8388L14.0807 14.1755L14.4739 14.9991L14.0589 16.4261L14.4327 16.4849C14.4987 16.4954 14.5435 16.5567 14.5336 16.6241C14.5238 16.684 14.4728 16.7242 14.4138 16.7242C14.4072 16.7242 14.401 16.7242 14.3944 16.7235L14.0906 16.6749C14.0924 16.6792 14.0947 16.6825 14.097 16.6859C14.0995 16.6897 14.1021 16.6935 14.104 16.6985C14.1361 16.7656 14.2082 16.8127 14.2505 16.8337L16.1144 16.8631L16.1219 16.8557C16.2054 16.7746 16.3956 16.5897 16.5906 16.3939C16.1315 16.2209 15.965 15.8278 15.9369 15.5663C15.6807 15.4575 15.5036 15.2947 15.4053 15.0833C15.2857 14.821 15.328 14.5581 15.3604 14.4301ZM15.8727 9.06003L14.2465 8.51099L14.675 10.9752L15.8727 11.6026V9.06003ZM16.0065 7.0256C17.1645 7.0256 18.2139 7.58371 18.2139 8.20419L18.1913 8.35687L17.7286 10.9991L18.1913 11.2675L19.3953 11.9659H19.391C19.391 11.9659 19.6616 12.1041 19.7851 12.1893C20.2454 12.5052 20.3416 12.9672 20.0756 13.158C20.0093 12.7815 19.7108 12.3884 19.1515 12.3884C18.7481 12.3884 18.4413 12.5944 18.1913 12.9059C18.1291 12.9842 18.0685 13.068 18.0113 13.158C17.9414 13.2718 17.8721 13.3716 17.8029 13.4673H20.8998C20.6713 13.9228 20.4557 14.4047 20.4557 14.9288V21.7487C20.4557 23.3998 19.1817 24.1871 17.8011 24.1871C17.7207 24.1871 17.6455 24.1868 17.575 24.1866C16.7096 24.1834 16.5458 24.1829 16.0043 24.7224C15.4605 24.1829 15.2965 24.1834 14.4316 24.1866C14.3611 24.1868 14.286 24.1871 14.2057 24.1871C12.8261 24.1871 11.5504 23.3998 11.5504 21.7487V14.9288C11.5504 14.4047 11.3343 13.9228 11.1066 13.4673H14.2031C14.1335 13.3716 14.0636 13.2718 13.994 13.158C13.9379 13.068 13.877 12.9842 13.8129 12.9059C13.5654 12.5955 13.2579 12.3884 12.8549 12.3884C12.2948 12.3884 11.996 12.7815 11.9304 13.158C11.6648 12.9672 11.7621 12.5052 12.2198 12.1893C12.3451 12.1041 12.6155 11.9659 12.6155 11.9659H12.6111L13.8129 11.2675L14.2778 10.9991L13.8151 8.35687L13.7921 8.20419C13.7921 7.58371 14.8415 7.0256 15.9996 7.0256H16.0025H16.0054H16.0065Z" fill="#231F20"/>
</g>
<defs>
<clipPath id="clip0_622_25396">
<rect width="32" height="32" rx="8" fill="white"/>
</clipPath>
</defs>
</svg>
