<svg width="20" height="20" viewBox="0 0 20 20" fill="none" xmlns="http://www.w3.org/2000/svg">
<g clip-path="url(#clip0_135_5113)">
<path d="M2.48633 5.14664C2.48633 3.66956 3.68327 2.48535 5.14762 2.48535H14.5194C15.9965 2.48535 17.1807 3.6823 17.1807 5.14664V14.5185C17.1807 15.9955 15.9838 17.1797 14.5194 17.1797H5.14762C3.67054 17.1797 2.48633 15.9828 2.48633 14.5185V5.14664Z" fill="#072DA0"/>
<path d="M14.532 17.333H5.1474C3.59392 17.333 2.33331 16.0724 2.33331 14.5189V5.1471C2.33331 3.59362 3.59392 2.33301 5.1474 2.33301H14.5192C16.0727 2.33301 17.3333 3.59362 17.3333 5.1471V14.5189C17.3333 16.0724 16.0727 17.333 14.532 17.333ZM5.1474 2.63861C3.75946 2.63861 2.63892 3.77189 2.63892 5.1471V14.5189C2.63892 15.9069 3.77219 17.0274 5.1474 17.0274H14.5192C15.9072 17.0274 17.0277 15.8941 17.0277 14.5189V5.1471C17.0277 3.75915 15.8944 2.63861 14.5192 2.63861H5.1474Z" fill="#072DA0"/>
<path d="M6.08984 6.08984H7.59239V7.59239H9.09494V9.09494H10.5975V10.5975H9.09494V12.1H7.59239V13.6026H6.08984V10.5975H7.59239V9.09494H6.08984V6.08984Z" fill="white"/>
<path d="M10.5847 12.0875V10.585H12.0872V12.0875H10.5847Z" fill="white"/>
<path d="M12.0872 12.0869H13.5898V13.5895H12.0872V12.0869Z" fill="white"/>
<path d="M10.5846 12.0869H9.08203V13.5895H10.5846V12.0869Z" fill="white"/>
<path d="M12.0871 10.5848V9.0822H10.5846V7.57966H9.08203V6.08984H12.0871V7.59239H13.5897V10.5975H12.0871V10.5848Z" fill="white"/>
</g>
<defs>
<clipPath id="clip0_135_5113">
<rect width="20" height="20" rx="10" fill="white"/>
</clipPath>
</defs>
</svg>
