<svg width="21" height="21" viewBox="0 0 21 21" fill="none" xmlns="http://www.w3.org/2000/svg">
<path d="M3.07107 3.06956C-0.825091 6.96572 -0.825091 13.3155 3.07107 17.2117C6.96723 21.1079 13.317 21.1079 17.2132 17.2117C21.1094 13.3155 21.1094 6.96572 17.2132 3.06956C13.317 -0.826601 6.96723 -0.826601 3.07107 3.06956ZM14.1444 9.39109C14.5545 9.39109 14.8939 9.7305 14.8939 10.1406C14.8939 10.3528 14.809 10.5366 14.6747 10.671C14.5403 10.8053 14.3565 10.8902 14.1444 10.8902L10.8917 10.8902L10.8917 14.1428C10.8917 14.355 10.8068 14.5388 10.6725 14.6732C10.5381 14.8075 10.3543 14.8924 10.1421 14.8924C9.73201 14.8924 9.3926 14.553 9.3926 14.1428L9.3926 10.8902L6.13991 10.8902C5.72979 10.8902 5.39038 10.5507 5.39038 10.1406C5.39038 9.7305 5.72979 9.39109 6.13991 9.39109L9.3926 9.39109L9.3926 6.1384C9.3926 5.72828 9.73201 5.38887 10.1421 5.38887C10.5523 5.38887 10.8917 5.72828 10.8917 6.1384L10.8917 9.39109L14.1444 9.39109Z" fill="#8FCC00"/>
</svg>
