<svg width="150" height="40" viewBox="0 0 150 40" fill="none" xmlns="http://www.w3.org/2000/svg">
<g clip-path="url(#clip0_227_25285)">
<path d="M33.8326 25.5479C35.1714 28.4054 34.4462 31.5541 32.2148 32.5893C29.9834 33.6244 27.1012 32.1492 25.7623 29.2979C24.4235 26.4467 25.1487 23.2917 27.3801 22.2566C29.6115 21.2215 32.4999 22.6967 33.8326 25.5479Z" fill="#333333"/>
<path d="M38.1279 24.2524C40.3345 28.9756 38.4688 34.5789 33.6961 37.4177C28.0742 40.7586 21.0639 38.7566 18.5287 33.3454L18.2188 32.6946C17.1859 30.4786 16.6783 28.0541 16.7356 25.6099L16.8843 14.6636C16.9137 13.7637 17.1954 12.8902 17.6974 12.1427C18.1993 11.3953 18.9013 10.804 19.7232 10.4363L21.4525 9.63672V9.64292C20.7833 9.97098 20.2221 10.484 19.8354 11.1211C19.4488 11.7583 19.2528 12.4929 19.2707 13.238C19.2707 13.2999 19.2769 13.3681 19.2769 13.4363L19.717 23.6574C19.8079 25.9746 20.36 28.2503 21.3409 30.3516L21.6385 30.9776C24.0682 36.1594 30.1116 38.3909 34.7046 35.5582C38.3802 33.2896 39.7438 28.5851 38.1013 24.2586L38.1279 24.2524Z" fill="#50761E"/>
<path d="M38.1032 24.2591C39.7458 28.5855 38.3821 33.2901 34.7065 35.5587C30.1135 38.3913 24.0701 36.1599 21.6404 30.9781L21.3429 30.352C20.3619 28.2508 19.8098 25.975 19.7189 23.6578L19.2788 13.4368C19.2788 13.3686 19.2726 13.3004 19.2726 13.2384C19.2547 12.4933 19.4507 11.7587 19.8374 11.1216C20.224 10.4844 20.7852 9.97143 21.4544 9.64337C21.4606 9.64337 21.4606 9.63717 21.4668 9.63717C22.1846 9.32275 22.9795 9.22854 23.7508 9.36647C24.5222 9.50441 25.2352 9.86828 25.7995 10.412L33.3801 17.3169C35.1047 18.871 36.5 20.7553 37.4834 22.8582L37.7809 23.4843C37.8986 23.7396 38.0102 23.9987 38.1032 24.2591ZM32.2148 32.5896C34.4462 31.5545 35.1714 28.4058 33.8325 25.5483C32.4937 22.6909 29.6053 21.2219 27.3801 22.257C25.1548 23.2921 24.4296 26.4471 25.7623 29.2983C27.0949 32.1496 29.9896 33.6248 32.2148 32.5896Z" fill="#006E04"/>
<path d="M14.2561 3.33499V3.71929C14.2551 4.04777 14.1242 4.36251 13.8919 4.59479C13.6597 4.82706 13.3449 4.95798 13.0164 4.95896H11.7768C11.4483 4.95798 11.1336 4.82706 10.9013 4.59479C10.669 4.36251 10.5381 4.04777 10.5371 3.71929V1.85979C10.5381 1.53131 10.669 1.21656 10.9013 0.984292C11.1336 0.752021 11.4483 0.621098 11.7768 0.620117H13.0164C13.3449 0.621098 13.6597 0.752021 13.8919 0.984292C14.1242 1.21656 14.2551 1.53131 14.2561 1.85979V3.33499Z" fill="#333333"/>
<path d="M18.2188 32.6953C17.1859 30.4793 16.6783 28.0548 16.7356 25.6106L16.8843 14.6643C16.9067 13.8834 17.1213 13.12 17.5093 12.4419C17.8972 11.7637 18.4464 11.1918 19.1083 10.7767L18.8659 10.2399C18.435 9.25198 18.1088 8.22154 17.8928 7.16554C17.7239 6.24295 17.2901 5.38947 16.6444 4.70926C15.9986 4.02905 15.1688 3.55152 14.2562 3.33496V3.71926C14.2553 4.04774 14.1243 4.36248 13.8921 4.59475C13.6598 4.82702 13.345 4.95795 13.0166 4.95893H11.7769C11.4484 4.95795 11.1337 4.82702 10.9014 4.59475C10.6691 4.36248 10.5382 4.04774 10.5372 3.71926V3.33496C9.62385 3.55026 8.79313 4.02735 8.14686 4.70775C7.50059 5.38815 7.06685 6.2423 6.8988 7.16554C6.68282 8.22154 6.35666 9.25198 5.92566 10.2399L3.00004 16.7234C1.44229 19.5795 0.624049 22.78 0.619873 26.0333C0.619873 33.2234 5.89467 39.0498 12.3967 39.0498C15.3205 39.0277 18.1175 37.8532 20.1806 35.7815C19.5078 35.0601 18.9506 34.2391 18.5288 33.3474L18.2188 32.6953Z" fill="#50761E"/>
<path d="M38.1278 24.2524L38.103 24.2586C39.7438 28.5789 38.3857 33.2754 34.7219 35.5477L34.7064 35.5582C30.1134 38.3909 24.07 36.1594 21.6402 30.9776L21.3427 30.3516C20.3618 28.2503 19.8097 25.9746 19.7188 23.6574L19.2787 13.4363C19.2787 13.3681 19.2725 13.2999 19.2725 13.238C19.2546 12.4929 19.4505 11.7583 19.8372 11.1211C20.2239 10.484 20.7851 9.97098 21.4543 9.64292V9.63672L20.4378 10.1072C19.753 10.5166 19.1822 11.0917 18.7782 11.7797C18.3741 12.4677 18.1498 13.2463 18.1258 14.0437L17.9752 24.99C17.9173 27.4341 18.4242 29.8586 19.4566 32.0747L19.7665 32.7256C22.1026 37.7121 28.2371 39.7917 33.5888 37.4754C33.6247 37.4543 33.6619 37.4388 33.6973 37.4177C35.2571 36.4979 36.5695 35.2121 37.521 33.6714C38.4006 32.277 38.9169 30.6844 39.0229 29.0391C39.1289 27.3939 38.8212 25.7482 38.1278 24.2524Z" fill="#629026"/>
<path d="M13.0165 0.620117H11.7769C12.1053 0.621098 12.4201 0.752021 12.6524 0.984292C12.8846 1.21656 13.0155 1.53131 13.0165 1.85979V3.71929C13.0155 4.04777 12.8846 4.36251 12.6524 4.59479C12.4201 4.82706 12.1053 4.95798 11.7769 4.95896H13.0165C13.345 4.95798 13.6597 4.82706 13.892 4.59479C14.1243 4.36251 14.2552 4.04777 14.2562 3.71929V1.85979C14.2552 1.53131 14.1243 1.21656 13.892 0.984292C13.6597 0.752021 13.345 0.621098 13.0165 0.620117Z" fill="#DD9F76"/>
<path d="M33.8325 25.5479C32.4999 22.6967 29.6053 21.2215 27.3801 22.2566C27.1376 22.3709 26.9088 22.5123 26.6982 22.6781C28.8286 22.0979 31.3681 23.5496 32.5916 26.1678C33.7823 28.7091 33.3354 31.4767 31.6557 32.787C31.8469 32.737 32.0335 32.6708 32.2135 32.5893C34.4462 31.5541 35.1714 28.4054 33.8325 25.5479Z" fill="#DD9F76"/>
<path d="M32.612 31.6739C30.7091 31.7036 28.681 30.3171 27.6217 28.0615C27.1856 27.2103 26.9572 26.2679 26.955 25.3115C26.9529 24.3551 27.1771 23.4118 27.6093 22.5586C27.302 22.5616 26.9963 22.6032 26.6994 22.6826C25.0184 23.9941 24.5771 26.7666 25.7622 29.3024C26.9919 31.9206 29.5271 33.3728 31.6568 32.7914C32.0443 32.484 32.3686 32.1045 32.612 31.6739Z" fill="#8A5A3D"/>
<path d="M25.7621 29.2986C24.74 27.1118 24.9291 24.7502 26.077 23.2998C25.8858 23.3496 25.6992 23.4155 25.5192 23.4969C23.2878 24.532 22.5688 27.687 23.9014 30.5382C25.234 33.3895 28.1287 34.8647 30.3539 33.8296C30.865 33.5902 31.3126 33.2339 31.6605 32.7895C29.5301 33.3709 26.9925 31.9217 25.7621 29.2986Z" fill="#E0DB89"/>
<path d="M37.7783 23.4877L37.4839 22.8592C36.5009 20.7557 35.1048 18.8715 33.3788 17.3185L25.7982 10.4136C25.2456 9.85367 24.5335 9.47811 23.7594 9.33821C22.9852 9.19832 22.1868 9.30092 21.4732 9.63199C20.7595 9.96306 20.1656 10.5064 19.7725 11.1879C19.3793 11.8693 19.2063 12.6555 19.2769 13.439L19.7182 23.6594C19.8043 25.9774 20.357 28.2542 21.3434 30.3536L21.6378 30.9822C24.0657 36.1658 30.1135 38.3935 34.7052 35.5627C38.6052 33.1565 39.8982 28.0169 37.7783 23.4877ZM34.2193 34.7687C33.3103 35.3269 32.2925 35.6841 31.234 35.8163C30.1756 35.9484 29.1012 35.8524 28.0829 35.5348C26.8532 35.1506 25.7183 34.5112 24.7526 33.6585C23.7868 32.8057 23.0119 31.7588 22.4783 30.5861L22.1901 29.957C21.2545 27.9687 20.7302 25.8119 20.6486 23.616L20.2066 13.3987C20.1614 12.8034 20.2942 12.2082 20.5882 11.6886C20.8821 11.169 21.3238 10.7485 21.8573 10.4805C22.4091 10.2459 23.018 10.1796 23.6074 10.2899C24.1968 10.4002 24.7405 10.6821 25.1703 11.1003L32.7527 18.0059C34.3882 19.4765 35.7108 21.2613 36.6416 23.2541L36.936 23.882C38.8445 27.9549 37.6767 32.6365 34.2193 34.7687Z" fill="#9CC154"/>
<path d="M18.5759 37.0963L18.5901 37.0858C18.869 36.8936 19.1412 36.6916 19.4033 36.4759C19.6655 36.2602 19.9308 36.0246 20.18 35.7804C19.5074 35.0593 18.9504 34.2384 18.5288 33.347L18.2188 32.6961C17.1857 30.4798 16.6781 28.0548 16.7356 25.6102L16.8843 14.6639C16.9067 13.883 17.1213 13.1196 17.5093 12.4415C17.8972 11.7633 18.4464 11.1914 19.1083 10.7763L18.8659 10.2395C18.7726 10.0118 18.6821 9.7829 18.5945 9.55273C18.5182 9.58187 18.4401 9.60294 18.3657 9.63703C18.3595 9.63703 18.3595 9.64323 18.3533 9.64323V9.63703L16.624 10.4366C15.8021 10.8043 15.1002 11.3956 14.5982 12.143C14.0962 12.8905 13.8145 13.764 13.7852 14.6639L13.6364 25.6102C13.5785 28.0543 14.0855 30.4787 15.1178 32.6949L15.4277 33.3457C15.6064 33.7267 15.8104 34.0953 16.0383 34.449C8.39074 33.5081 2.43103 29.9131 0.96946 22.3759C0.737148 23.581 0.620091 24.8056 0.619873 26.0329C0.619873 33.223 5.89467 39.0494 12.3967 39.0494C14.6072 39.0421 16.7628 38.3608 18.5759 37.0963Z" fill="#335506"/>
<path d="M14.2562 4.33909V3.71926C14.2553 4.04774 14.1243 4.36248 13.8921 4.59475C13.6598 4.82702 13.345 4.95795 13.0166 4.95893H11.7769C11.4484 4.95795 11.1337 4.82702 10.9014 4.59475C10.6691 4.36248 10.5382 4.04774 10.5372 3.71926V3.33496C9.68491 3.5385 8.90411 3.97029 8.27861 4.584C7.65312 5.1977 7.20654 5.97014 6.98682 6.81843H11.7769C12.4345 6.81843 13.0651 6.55722 13.5301 6.09225C13.995 5.62728 14.2562 4.99665 14.2562 4.33909Z" fill="#335506"/>
<path d="M31.7936 26.2402C32.1911 25.8428 32.0647 25.072 31.5113 24.5186C30.958 23.9653 30.1872 23.8389 29.7897 24.2364C29.3923 24.6338 29.5186 25.4046 30.072 25.958C30.6253 26.5113 31.3961 26.6377 31.7936 26.2402Z" fill="#F7FAFD"/>
<path d="M33.1521 27.6105C33.3518 27.4108 33.2884 27.0237 33.0105 26.7458C32.7326 26.4679 32.3455 26.4045 32.1458 26.6042C31.9461 26.8039 32.0094 27.1911 32.2873 27.469C32.5652 27.7469 32.9524 27.8102 33.1521 27.6105Z" fill="#F7FAFD"/>
<path d="M16.4216 7.14765C16.6213 6.94795 16.5579 6.56079 16.28 6.28291C16.0022 6.00502 15.615 5.94164 15.4153 6.14134C15.2156 6.34104 15.279 6.7282 15.5569 7.00609C15.8348 7.28397 16.2219 7.34735 16.4216 7.14765Z" fill="#F7FAFD"/>
<path d="M17.2511 9.06628C17.351 8.96631 17.3194 8.77263 17.1805 8.63369C17.0416 8.49475 16.8479 8.46316 16.7479 8.56313C16.6479 8.6631 16.6795 8.85678 16.8185 8.99572C16.9574 9.13466 17.1511 9.16625 17.2511 9.06628Z" fill="#F7FAFD"/>
</g>
<path d="M46.3638 31.5124L51.8183 13.6611H56.8514L62.3059 31.5124H58.8348L53.9753 15.7686H54.62L49.8348 31.5124H46.3638ZM49.6365 27.7934V24.6446H59.058V27.7934H49.6365Z" fill="#333333"/>
<path d="M67.155 31.5124L62.2955 18.1239H65.6674L68.8409 27.3967L72.0145 18.1239H75.3864L70.5269 31.5124H67.155Z" fill="#333333"/>
<path d="M83.1672 31.8843C81.8201 31.8843 80.6383 31.5826 79.6218 30.9793C78.6052 30.376 77.8119 29.5454 77.2416 28.4876C76.6796 27.4215 76.3986 26.1983 76.3986 24.8182C76.3986 23.4215 76.6879 22.1942 77.2664 21.1363C77.8449 20.0702 78.6424 19.2396 79.659 18.6446C80.6755 18.0496 81.8449 17.752 83.1672 17.752C84.5143 17.752 85.6962 18.0537 86.7127 18.657C87.7375 19.2603 88.535 20.095 89.1052 21.1611C89.6755 22.219 89.9606 23.438 89.9606 24.8182C89.9606 26.2066 89.6714 27.4339 89.0928 28.5C88.5226 29.5578 87.7251 30.3884 86.7003 30.9917C85.6838 31.5868 84.5061 31.8843 83.1672 31.8843ZM83.1672 28.7355C84.2499 28.7355 85.0557 28.3719 85.5846 27.6446C86.1218 26.9091 86.3904 25.9669 86.3904 24.8182C86.3904 23.6281 86.1176 22.6777 85.5722 21.9669C85.035 21.2562 84.2333 20.9008 83.1672 20.9008C82.4317 20.9008 81.8284 21.0661 81.3573 21.3967C80.8862 21.7272 80.535 22.1859 80.3036 22.7727C80.0805 23.3595 79.9689 24.0413 79.9689 24.8182C79.9689 26.0165 80.2375 26.9711 80.7747 27.6818C81.3201 28.3843 82.1176 28.7355 83.1672 28.7355Z" fill="#333333"/>
<path d="M98.5876 31.8843C97.1991 31.8843 96.009 31.5744 95.0173 30.9545C94.0256 30.3347 93.2652 29.4917 92.7363 28.4256C92.2074 27.3595 91.9429 26.157 91.9429 24.8182C91.9429 23.4628 92.2157 22.252 92.7611 21.1859C93.3148 20.1198 94.0917 19.281 95.0917 18.6694C96.0917 18.0578 97.2735 17.752 98.6371 17.752C100.216 17.752 101.538 18.1529 102.604 18.9545C103.678 19.7479 104.364 20.8347 104.662 22.2149L101.29 23.1074C101.092 22.4132 100.745 21.8719 100.249 21.4834C99.7611 21.095 99.2074 20.9008 98.5876 20.9008C97.8768 20.9008 97.2942 21.0744 96.8396 21.4215C96.3851 21.7603 96.0504 22.2272 95.8355 22.8223C95.6206 23.4091 95.5132 24.0744 95.5132 24.8182C95.5132 25.9834 95.7694 26.9297 96.2818 27.657C96.8024 28.376 97.571 28.7355 98.5876 28.7355C99.3479 28.7355 99.9264 28.562 100.323 28.2149C100.72 27.8677 101.017 27.3719 101.216 26.7272L104.662 27.4463C104.282 28.8677 103.563 29.9628 102.505 30.7314C101.447 31.5 100.141 31.8843 98.5876 31.8843Z" fill="#333333"/>
<path d="M110.618 31.8843C109.66 31.8843 108.846 31.7025 108.176 31.3388C107.515 30.9669 107.011 30.4752 106.664 29.8636C106.325 29.2438 106.156 28.562 106.156 27.8182C106.156 27.1983 106.251 26.6322 106.441 26.1198C106.631 25.6074 106.937 25.157 107.358 24.7686C107.788 24.3719 108.362 24.0413 109.081 23.7768C109.577 23.595 110.168 23.4339 110.854 23.2934C111.54 23.1529 112.317 23.0206 113.184 22.8967C114.052 22.7644 115.007 22.6198 116.048 22.4628L114.833 23.1322C114.833 22.3388 114.643 21.7562 114.263 21.3843C113.883 21.0124 113.246 20.8264 112.354 20.8264C111.858 20.8264 111.341 20.9463 110.804 21.1859C110.267 21.4256 109.891 21.8512 109.676 22.4628L106.627 21.4958C106.965 20.3884 107.602 19.4876 108.536 18.7934C109.47 18.0991 110.742 17.752 112.354 17.752C113.536 17.752 114.585 17.9339 115.503 18.2975C116.42 18.6611 117.114 19.2892 117.585 20.1818C117.85 20.6777 118.007 21.1735 118.056 21.6694C118.106 22.1653 118.131 22.719 118.131 23.3306V31.5124H115.18V28.7603L115.602 29.3306C114.949 30.2314 114.242 30.8843 113.482 31.2892C112.73 31.6859 111.775 31.8843 110.618 31.8843ZM111.337 29.2314C111.957 29.2314 112.478 29.1239 112.899 28.9091C113.329 28.6859 113.668 28.4339 113.916 28.1529C114.172 27.8719 114.346 27.6363 114.437 27.4463C114.61 27.0826 114.709 26.6611 114.734 26.1818C114.767 25.6942 114.784 25.2892 114.784 24.9669L115.775 25.2149C114.775 25.3801 113.965 25.5206 113.346 25.6363C112.726 25.7438 112.226 25.843 111.846 25.9339C111.465 26.0248 111.131 26.1239 110.841 26.2314C110.511 26.3636 110.242 26.5082 110.036 26.6653C109.837 26.814 109.689 26.9793 109.589 27.1611C109.499 27.343 109.453 27.5454 109.453 27.7686C109.453 28.0744 109.527 28.3388 109.676 28.562C109.833 28.7768 110.052 28.9421 110.333 29.0578C110.614 29.1735 110.949 29.2314 111.337 29.2314Z" fill="#333333"/>
<path d="M126.784 31.8843C125.552 31.8843 124.474 31.5744 123.548 30.9545C122.623 30.3347 121.9 29.4917 121.379 28.4256C120.866 27.3595 120.61 26.157 120.61 24.8182C120.61 23.4545 120.871 22.2438 121.391 21.1859C121.92 20.1198 122.66 19.281 123.61 18.6694C124.561 18.0578 125.676 17.752 126.957 17.752C128.23 17.752 129.3 18.062 130.168 18.6818C131.036 19.3016 131.693 20.1446 132.139 21.2107C132.585 22.2768 132.809 23.4793 132.809 24.8182C132.809 26.157 132.581 27.3595 132.127 28.4256C131.681 29.4917 131.011 30.3347 130.119 30.9545C129.226 31.5744 128.114 31.8843 126.784 31.8843ZM127.329 28.8843C128.081 28.8843 128.681 28.7149 129.127 28.376C129.581 28.0372 129.908 27.562 130.106 26.9504C130.304 26.3388 130.404 25.6281 130.404 24.8182C130.404 24.0082 130.304 23.2975 130.106 22.6859C129.908 22.0744 129.59 21.5991 129.152 21.2603C128.722 20.9215 128.156 20.752 127.453 20.752C126.701 20.752 126.081 20.938 125.594 21.3099C125.114 21.6735 124.759 22.1653 124.528 22.7851C124.296 23.3967 124.181 24.0744 124.181 24.8182C124.181 25.5702 124.292 26.2562 124.515 26.876C124.738 27.4876 125.081 27.9752 125.544 28.3388C126.007 28.7025 126.602 28.8843 127.329 28.8843ZM130.404 31.5124V22.3388H129.982V13.6611H133.379V31.5124H130.404Z" fill="#333333"/>
<path d="M142.875 31.8843C141.528 31.8843 140.346 31.5826 139.329 30.9793C138.313 30.376 137.519 29.5454 136.949 28.4876C136.387 27.4215 136.106 26.1983 136.106 24.8182C136.106 23.4215 136.395 22.1942 136.974 21.1363C137.552 20.0702 138.35 19.2396 139.366 18.6446C140.383 18.0496 141.552 17.752 142.875 17.752C144.222 17.752 145.404 18.0537 146.42 18.657C147.445 19.2603 148.243 20.095 148.813 21.1611C149.383 22.219 149.668 23.438 149.668 24.8182C149.668 26.2066 149.379 27.4339 148.8 28.5C148.23 29.5578 147.433 30.3884 146.408 30.9917C145.391 31.5868 144.214 31.8843 142.875 31.8843ZM142.875 28.7355C143.957 28.7355 144.763 28.3719 145.292 27.6446C145.829 26.9091 146.098 25.9669 146.098 24.8182C146.098 23.6281 145.825 22.6777 145.28 21.9669C144.743 21.2562 143.941 20.9008 142.875 20.9008C142.139 20.9008 141.536 21.0661 141.065 21.3967C140.594 21.7272 140.243 22.1859 140.011 22.7727C139.788 23.3595 139.676 24.0413 139.676 24.8182C139.676 26.0165 139.945 26.9711 140.482 27.6818C141.028 28.3843 141.825 28.7355 142.875 28.7355Z" fill="#333333"/>
<path d="M147.529 33.9919C148.919 33.9919 150 32.8938 150 31.504C150 30.1313 148.919 29.0332 147.529 29.0332C146.139 29.0332 145.041 30.1313 145.041 31.504C145.041 32.8938 146.139 33.9919 147.529 33.9919Z" fill="#8BC503"/>
<defs>
<clipPath id="clip0_227_25285">
<rect width="39.6694" height="39.6694" fill="white"/>
</clipPath>
</defs>
</svg>
