<svg width="37" height="36" viewBox="0 0 37 36" fill="none" xmlns="http://www.w3.org/2000/svg">
<path d="M29.255 9.96027C28.61 6.70527 26.195 5.28027 22.835 5.28027H9.665C5.705 5.28027 3.065 7.26027 3.065 11.8803V19.6053C3.065 22.9353 4.43 24.8853 6.68 25.7253C7.01 25.8453 7.37 25.9503 7.745 26.0103C8.345 26.1453 8.99 26.2053 9.665 26.2053H22.85C26.81 26.2053 29.45 24.2253 29.45 19.6053V11.8803C29.45 11.1753 29.39 10.5453 29.255 9.96027ZM8.795 18.0003C8.795 18.6153 8.285 19.1253 7.67 19.1253C7.055 19.1253 6.545 18.6153 6.545 18.0003V13.5003C6.545 12.8853 7.055 12.3753 7.67 12.3753C8.285 12.3753 8.795 12.8853 8.795 13.5003V18.0003ZM16.25 19.7103C14.06 19.7103 12.29 17.9403 12.29 15.7503C12.29 13.5603 14.06 11.7903 16.25 11.7903C18.44 11.7903 20.21 13.5603 20.21 15.7503C20.21 17.9403 18.44 19.7103 16.25 19.7103ZM25.94 18.0003C25.94 18.6153 25.43 19.1253 24.815 19.1253C24.2 19.1253 23.69 18.6153 23.69 18.0003V13.5003C23.69 12.8853 24.2 12.3753 24.815 12.3753C25.43 12.3753 25.94 12.8853 25.94 13.5003V18.0003Z" fill="#595959"/>
<path d="M33.95 16.3804V24.1054C33.95 28.7254 31.31 30.7204 27.335 30.7204H14.165C13.04 30.7204 12.035 30.5554 11.165 30.2254C10.46 29.9704 9.84499 29.5954 9.34999 29.1154C9.07999 28.8604 9.28999 28.4554 9.66499 28.4554H22.835C28.385 28.4554 31.685 25.1554 31.685 19.6204V11.8804C31.685 11.5204 32.09 11.2954 32.345 11.5654C33.365 12.6454 33.95 14.2204 33.95 16.3804Z" fill="#595959"/>
</svg>
