<svg width="37" height="36" viewBox="0 0 37 36" fill="none" xmlns="http://www.w3.org/2000/svg">
<path d="M27.5 4.5H9.5C6.185 4.5 3.5 7.17 3.5 10.455V25.545C3.5 28.83 6.185 31.5 9.5 31.5H27.5C30.815 31.5 33.5 28.83 33.5 25.545V10.455C33.5 7.17 30.815 4.5 27.5 4.5ZM13.25 10.755C15.155 10.755 16.715 12.315 16.715 14.22C16.715 16.125 15.155 17.685 13.25 17.685C11.345 17.685 9.785 16.125 9.785 14.22C9.785 12.315 11.345 10.755 13.25 10.755ZM19.055 24.99C18.92 25.14 18.71 25.23 18.5 25.23H8C7.79 25.23 7.58 25.14 7.445 24.99C7.31 24.84 7.235 24.63 7.25 24.42C7.505 21.9 9.515 19.905 12.035 19.665C12.83 19.59 13.655 19.59 14.45 19.665C16.97 19.905 18.995 21.9 19.235 24.42C19.265 24.63 19.19 24.84 19.055 24.99ZM29 25.125H26C25.385 25.125 24.875 24.615 24.875 24C24.875 23.385 25.385 22.875 26 22.875H29C29.615 22.875 30.125 23.385 30.125 24C30.125 24.615 29.615 25.125 29 25.125ZM29 19.125H23C22.385 19.125 21.875 18.615 21.875 18C21.875 17.385 22.385 16.875 23 16.875H29C29.615 16.875 30.125 17.385 30.125 18C30.125 18.615 29.615 19.125 29 19.125ZM29 13.125H21.5C20.885 13.125 20.375 12.615 20.375 12C20.375 11.385 20.885 10.875 21.5 10.875H29C29.615 10.875 30.125 11.385 30.125 12C30.125 12.615 29.615 13.125 29 13.125Z" fill="#595959"/>
</svg>
