<svg width="14" height="14" viewBox="0 0 14 14" fill="none" xmlns="http://www.w3.org/2000/svg">
<path fill-rule="evenodd" clip-rule="evenodd" d="M1.76777 5.82031C1.07741 5.82031 0.517767 6.37996 0.517767 7.07031C0.517767 7.76067 1.07741 8.32031 1.76777 8.32031L5.82107 8.32031L5.82107 12.3736C5.82107 13.064 6.38071 13.6236 7.07107 13.6236C7.76142 13.6236 8.32107 13.064 8.32107 12.3736V8.32031L12.3744 8.32031C13.0647 8.32031 13.6244 7.76067 13.6244 7.07031C13.6244 6.37996 13.0647 5.82031 12.3744 5.82031L8.32107 5.82031V1.76701C8.32107 1.07666 7.76142 0.517011 7.07107 0.517012C6.38071 0.517012 5.82107 1.07666 5.82107 1.76701L5.82107 5.82031L1.76777 5.82031Z" fill="#333333"/>
</svg>
