<svg width="25" height="24" viewBox="0 0 25 24" fill="none" xmlns="http://www.w3.org/2000/svg">
<path d="M23.5226 11.0447C24.0376 11 24.4227 10.5453 24.3381 10.0353C23.9949 7.96761 23.115 6.02002 21.7791 4.39092C20.2448 2.51986 18.1807 1.15635 15.8576 0.479313C13.5346 -0.197728 11.0611 -0.156669 8.76183 0.5971C6.46254 1.35087 4.44482 2.78214 2.97346 4.70308C1.5021 6.62403 0.645828 8.94491 0.517016 11.3612C0.388203 13.7774 0.992865 16.1762 2.25165 18.2427C3.51044 20.3092 5.36455 21.9469 7.57068 22.9408C9.49152 23.8063 11.6011 24.1485 13.6867 23.9412C14.2012 23.89 14.5399 23.3998 14.4489 22.8909C14.3578 22.382 13.8713 22.0478 13.3561 22.0915C11.6434 22.2368 9.91627 21.9441 8.33976 21.2338C6.47783 20.395 4.913 19.0128 3.85061 17.2687C2.78822 15.5246 2.2779 13.5001 2.38661 11.4609C2.49533 9.42157 3.218 7.46279 4.4598 5.84155C5.7016 4.22031 7.40451 3.01236 9.34507 2.37619C11.2856 1.74002 13.3732 1.70537 15.3338 2.27678C17.2944 2.84819 19.0365 3.99896 20.3314 5.57809C21.4278 6.91516 22.1603 8.50644 22.4661 10.1979C22.5581 10.7067 23.0075 11.0893 23.5226 11.0447Z" fill="#595959"/>
</svg>
