<svg width="120" height="67" viewBox="0 0 120 67" fill="none" xmlns="http://www.w3.org/2000/svg">
<path d="M2.8715 26.4383C1.92587 26.2385 0.99735 26.8432 0.797589 27.7888C0.597829 28.7344 1.20247 29.6629 2.1481 29.8627L2.8715 26.4383ZM82.864 16.6137L84.5447 16.1261L82.864 16.6137ZM49.374 45.3101L48.2238 46.629L49.374 45.3101ZM119.553 50.9419C119.963 50.0667 119.586 49.0248 118.71 48.6149L104.447 41.9341C103.572 41.5242 102.53 41.9014 102.12 42.7766C101.71 43.6518 102.088 44.6937 102.963 45.1037L115.641 51.0421L109.702 63.7202C109.293 64.5955 109.67 65.6373 110.545 66.0473C111.42 66.4573 112.462 66.0801 112.872 65.2048L119.553 50.9419ZM2.1481 29.8627C18.0251 33.2166 39.8354 35.7256 56.9621 34.6794C65.4847 34.1587 73.086 32.7468 78.2124 29.9468C80.799 28.534 82.8809 26.6998 84.0608 24.3256C85.2585 21.9156 85.4237 19.1562 84.5447 16.1261L81.1833 17.1013C81.8613 19.4385 81.6693 21.2734 80.9265 22.768C80.166 24.2984 78.7241 25.6792 76.5347 26.8751C72.1089 29.2924 65.1488 30.6727 56.7487 31.1859C40.0299 32.2072 18.5489 29.7501 2.8715 26.4383L2.1481 29.8627ZM84.5447 16.1261C81.9223 7.08679 75.8039 2.20915 68.717 0.687225C61.7363 -0.811891 53.952 0.962397 47.7588 4.85416C41.5612 8.74871 36.7241 14.92 36.0028 22.419C35.2765 29.9705 38.7665 38.3817 48.2238 46.629L50.5242 43.9912C41.624 36.2297 38.9011 28.843 39.4868 22.7541C40.0774 16.6128 44.0771 11.3014 49.621 7.81763C55.1694 4.33103 62.0315 2.83129 67.9821 4.10921C73.8266 5.36432 78.9244 9.31476 81.1833 17.1013L84.5447 16.1261ZM48.2238 46.629C52.3714 50.2459 58.4705 52.4502 65.1682 53.756C71.9057 55.0694 79.4574 55.5122 86.7007 55.4558C93.9515 55.3993 100.943 54.8419 106.581 54.1342C112.159 53.4341 116.567 52.568 118.564 51.8451L117.372 48.5541C115.781 49.1302 111.724 49.9612 106.145 50.6615C100.626 51.3542 93.7718 51.9006 86.6734 51.9559C79.5674 52.0113 72.2673 51.574 65.8379 50.3206C59.3687 49.0595 53.9859 47.01 50.5242 43.9912L48.2238 46.629Z" fill="#595959"/>
</svg>
