<svg width="40" height="40" viewBox="0 0 40 40" fill="none" xmlns="http://www.w3.org/2000/svg">
<g clip-path="url(#clip0_570_28294)">
<path d="M0 0.493827V40H40V0L0 0.493827ZM17 29.04L15.452 33.5328C9.645 31.6207 5.774 26.1728 5.774 20.0553C5.774 13.9388 9.645 8.58667 15.548 6.57877L17.097 11.0716C13.226 12.3141 10.71 15.9457 10.71 19.9605C10.613 24.2607 13.129 27.7975 17 29.04ZM24.161 33.7235L22.71 29.1358C26.677 27.8933 29.29 24.2607 29.29 20.1511C29.29 16.0415 26.677 12.5047 22.806 11.2622L24.355 6.67457C30.258 8.58667 34.225 14.0346 34.225 20.1511C34.225 26.3635 30.161 31.8123 24.161 33.7235Z" fill="#00BEF0"/>
</g>
<defs>
<clipPath id="clip0_570_28294">
<rect width="40" height="40" rx="20" fill="white"/>
</clipPath>
</defs>
</svg>
