<svg width="40" height="40" viewBox="0 0 40 40" fill="none" xmlns="http://www.w3.org/2000/svg">
<path d="M20 5C8.9 5 0 13.5 0 24.1C0 27.7 1.1 31.2 3.1 34.2H12.7C10.7 32.7 9.2 30.5 8.4 28.1C7.7 25.7 7.7 23.1 8.5 20.7C9.3 18.3 10.9 16.2 12.9 14.7C15 13.2 17.4 12.4 20 12.4C22.5 12.4 25 13.2 27.1 14.7C29.2 16.2 30.7 18.3 31.5 20.7C32.3 23.1 32.3 25.7 31.6 28.1C30.9 30.5 29.4 32.7 27.3 34.2H36.9C38.9 31.2 39.9 27.7 40 24.1C40 13.5 31.1 5 20 5Z" fill="#C8102E"/>
<path d="M13.5 27.3C13.9 28.7 14.8 29.9001 16 30.7001C17.2 31.6001 18.6 32 20 32C21.4 32 22.9 31.5001 24 30.7001C25.2 29.8001 26 28.7 26.5 27.3H13.5Z" fill="#C8102E"/>
</svg>
