<svg width="40" height="40" viewBox="0 0 40 40" fill="none" xmlns="http://www.w3.org/2000/svg">
<g clip-path="url(#clip0_570_28303)">
<path d="M31.1111 0H8.88889C3.97969 0 0 3.97969 0 8.88889V31.1111C0 36.0203 3.97969 40 8.88889 40H31.1111C36.0203 40 40 36.0203 40 31.1111V8.88889C40 3.97969 36.0203 0 31.1111 0Z" fill="#FFDD2D"/>
<path fill-rule="evenodd" clip-rule="evenodd" d="M36.8751 17.6364L35.4267 17.6822C35.3036 17.6822 34.414 17.6568 33.5504 17.0336C33.6151 17.0394 33.6793 17.049 33.7453 17.049C34.6336 17.049 35.4944 16.5168 35.8387 15.7543L36.4618 14.3781C35.6798 14.3885 34.9656 14.2901 34.9656 14.2901C34.9598 14.2897 34.3962 14.2171 33.7449 13.5548C33.278 13.0802 32.6996 12.8286 32.0738 12.8286C31.7996 12.8286 31.5549 12.8781 31.3436 12.9447C31.3769 12.8332 31.4073 12.7198 31.4256 12.6034C31.6251 11.315 30.7929 10.3332 30.7924 10.3341L29.702 8.99049L29.0264 10.5689C29.0242 10.5734 28.8531 10.9438 28.5482 11.1238C28.4567 10.66 28.23 10.1383 27.7462 9.64053C26.8342 8.70127 25.7247 8.56073 25.144 8.56073C24.8753 8.56073 24.6831 8.58976 24.6362 8.59747L23.3207 8.85449C23.3967 8.56256 23.5589 8.05258 23.854 7.59384L24.5802 6.46871L22.7531 6.67542L22.1715 5.4456L21.0446 6.02358L20.003 5L18.964 6.02358L17.8349 5.4456L17.2541 6.67542L15.4276 6.46827L16.155 7.59429C16.4506 8.05258 16.6119 8.5612 16.687 8.85313L15.4317 8.60698L15.3884 8.59973C15.326 8.58976 15.1352 8.56073 14.8646 8.56073C14.2844 8.56073 13.1743 8.70127 12.2647 9.64007C11.7806 10.1378 11.5533 10.66 11.4608 11.1238C11.1579 10.9452 10.988 10.5811 10.988 10.5811L10.3112 8.99364L9.20436 10.3454C9.06862 10.5195 8.40224 11.4429 8.58307 12.6047C8.60173 12.7208 8.63227 12.8332 8.66504 12.9447C8.45507 12.8772 8.21002 12.8286 7.93627 12.8286C7.30998 12.8286 6.73198 13.0802 6.26373 13.5548C5.61422 14.2144 5.17227 14.2608 5.05944 14.2888C4.94662 14.3167 4.46687 14.3948 3.54996 14.3781L4.17033 15.7543C4.51469 16.5168 5.376 17.049 6.26282 17.049C6.32978 17.049 6.39356 17.0394 6.45913 17.0336C5.59738 17.6568 4.7078 17.6822 4.60031 17.6827L3.125 17.6364L3.57182 19.0317C3.79684 19.7507 4.54884 20.9415 5.98771 21.0698C5.83102 21.7226 5.48396 22.4547 4.72147 22.7702L3.62238 23.2207L4.2218 24.2598C4.55978 24.82 5.35504 25.4756 6.48602 25.4756C6.73016 25.4747 6.96609 25.4502 7.19384 25.402C7.25213 25.6582 7.32456 25.9149 7.41064 26.1696C7.74724 27.1673 7.45711 27.8627 7.45391 27.8704L6.91098 29.0018L8.12258 29.3196C8.1376 29.3242 8.5038 29.4242 8.96202 29.4242C9.16973 29.4242 9.36922 29.4029 9.55462 29.3587C9.69535 29.326 9.83109 29.2824 9.96091 29.2298C10.118 29.5096 10.3084 29.7651 10.5303 29.994C11.3069 30.7869 12.4073 31.1887 13.8006 31.1887H13.8052L14.8 31.1758L12.7448 32.0267L14.3053 32.7773C14.8728 33.0522 15.5442 33.3771 16.2293 33.626L16.0339 34.1569L16.5722 34.4007C16.6201 34.4224 17.6545 34.8827 19.3735 34.9809C19.3735 34.9809 19.7889 35 20.0175 35C20.2457 35 20.6557 34.9796 20.6557 34.9796C22.3642 34.8789 23.3904 34.4224 23.4382 34.4007L23.9776 34.156L23.7807 33.6247C24.4844 33.3684 25.1818 33.0304 25.7256 32.766L27.2564 32.0258L25.2082 31.1758L26.2071 31.1887C27.6027 31.1887 28.7031 30.7864 29.4784 29.9927C29.6993 29.7656 29.8893 29.5109 30.0473 29.2298C30.1776 29.2824 30.3142 29.326 30.4553 29.3596C30.6409 29.4029 30.8393 29.4242 31.0471 29.4242C31.4976 29.4242 31.8673 29.3256 31.8773 29.3222L33.094 29.0018L32.5638 27.8911C32.5516 27.8627 32.2613 27.1673 32.5984 26.1687C32.6836 25.9138 32.7556 25.6573 32.8144 25.402C33.0431 25.4502 33.2818 25.4747 33.528 25.4756C34.9689 25.4756 35.6593 24.4673 35.7927 24.248L36.3867 23.2198L35.2876 22.7711C34.5233 22.4547 34.1771 21.723 34.0222 21.0707C35.4424 20.9474 36.2044 19.7557 36.4373 19.0322L36.8751 17.6364Z" fill="#FEFEFE"/>
<path fill-rule="evenodd" clip-rule="evenodd" d="M22.4055 8.3984C21.7427 8.03123 20.8832 7.82225 20.005 7.82225C19.1314 7.82225 18.2719 8.03123 17.6073 8.3984C17.5467 8.19667 17.4625 7.95145 17.3477 7.69487L17.5973 7.72434L17.8597 7.75198L17.9726 7.51354L18.3033 6.81045L18.9164 7.1264L19.1542 7.24654L19.3432 7.06069L20.005 6.40747L20.6682 7.06069L20.8581 7.24654L21.0959 7.1264L21.7058 6.81045L22.041 7.51354L22.1517 7.75198L22.4146 7.72434L22.665 7.69487C22.5501 7.95145 22.465 8.19667 22.4055 8.3984ZM20.005 9.27203C18.8408 9.27338 17.968 9.6528 17.7781 10.0993L20.005 10.9746L22.2324 10.0993C22.0442 9.6528 21.171 9.27338 20.005 9.27203ZM20.0286 32.4245H20.0263H20.0072H19.9853H19.9835C19.2788 32.429 18.3064 32.2848 17.8391 32.1492L17.2761 33.6652C17.6468 33.7965 18.9049 34.0492 20.0072 34.0492C21.1072 34.0492 22.3657 33.7965 22.7359 33.6652L22.1739 32.1492C21.7048 32.2848 20.7337 32.429 20.0286 32.4245ZM22.3904 31.671C22.9344 31.5063 23.8701 31.1519 24.2892 30.9159L24.0095 31.8268L24.9577 32.1405C24.3844 32.427 23.6895 32.6943 22.8472 32.9232L22.3904 31.671ZM15.7228 30.9159L16.0033 31.8268L15.0542 32.1405C15.6271 32.427 16.3249 32.6943 17.1638 32.9232L17.6215 31.671C17.0786 31.5063 16.1418 31.1519 15.7228 30.9159ZM33.4026 15.9548C33.517 15.9942 33.6326 16.0115 33.7475 16.0115C34.2444 16.0115 34.7235 15.6919 34.889 15.3265C34.889 15.3265 33.9788 15.2717 32.9995 14.283C32.6884 13.9625 32.3581 13.8668 32.0755 13.8668C31.6359 13.8668 31.3061 14.0971 31.3061 14.0971C31.9444 14.4354 32.3084 14.8839 32.6141 15.2606C32.8746 15.5818 33.0928 15.8507 33.4026 15.9548ZM6.60618 15.9548C6.49505 15.9942 6.37889 16.0115 6.26411 16.0115C5.76762 16.0115 5.28709 15.6919 5.12358 15.327C5.12358 15.327 6.03318 15.2717 7.01111 14.283C7.32402 13.962 7.65333 13.8668 7.938 13.8668C8.37482 13.8668 8.70551 14.0976 8.70551 14.0976C8.069 14.4351 7.70471 14.8827 7.3984 15.2591C7.13653 15.5809 6.91707 15.8505 6.60618 15.9548ZM33.0464 23.171C32.1312 22.7223 31.5541 21.531 31.4144 21.1021C31.2624 23.4639 30.1039 25.1034 28.7492 26.6819C28.0461 27.5001 27.801 28.2957 27.801 28.2957C27.801 28.2957 27.9368 27.3941 28.5444 26.6605C29.8084 25.1497 31.0095 23.2685 31.0988 21.0931C31.1597 19.5749 30.7681 18.3442 30.1559 17.3292C30.4984 18.3859 30.4497 19.6797 29.2872 20.8877C29.2872 20.8877 31.6021 18.1275 28.3664 15.2975C27.447 14.5328 26.4657 13.9759 25.7128 13.5486V13.5486C25.4052 13.374 25.1357 13.221 24.9241 13.0844C27.5597 13.9403 28.8468 12.9983 28.8468 12.9983C28.0055 13.7241 26.9155 13.7118 26.2401 13.6071C26.4237 13.696 26.6141 13.7889 26.819 13.8986C29.0412 15.0998 31.0386 17.0767 31.3792 19.8143V19.7934C31.8964 22.4816 33.0464 23.171 33.0464 23.171ZM33.7228 20.0391C33.7437 20.0405 33.761 20.0405 33.7819 20.0405C35.0208 20.0405 35.4404 18.72 35.4404 18.72H35.4164C35.189 18.72 33.347 18.6665 32.0452 17.0201C32.0088 16.974 31.9726 16.9282 31.9368 16.8827V16.8827C31.1275 15.8567 30.4268 14.9683 29.0988 14.6098L28.9621 14.5862L28.9328 14.4475C28.8941 14.2372 29.0399 14.0391 29.3692 13.826C31.2837 12.5786 29.9832 10.987 29.9832 10.987C29.9832 10.987 29.4366 12.2599 28.2137 12.2599C28.199 12.2599 28.1841 12.2594 28.169 12.259C28.1539 12.2585 28.1384 12.2581 28.123 12.2581L28.0959 12.2567C27.9666 12.25 27.841 12.2435 27.715 12.2173L27.4899 12.1733C27.4899 12.1733 27.8384 11.229 26.9966 10.3628C26.3626 9.70865 25.5915 9.59758 25.1459 9.59758C24.9219 9.59758 24.7792 9.62616 24.7792 9.62616C25.2021 10.176 25.5077 11.089 25.0199 11.6524C24.8564 11.8396 24.6019 11.9579 24.3512 12.0744C23.9541 12.2589 23.5668 12.4388 23.5668 12.8809C23.5668 13.1869 23.8544 13.5432 24.369 13.8632C25.9181 14.8338 27.4557 16.1225 28.0957 17.8487C28.8941 20.0019 27.9941 21.4312 26.7097 22.2512C26.7097 22.2512 27.1128 22.6203 27.6968 22.6674C27.8157 22.6788 27.9317 22.6845 28.0401 22.6845C29.2737 22.6845 29.9117 22.1085 29.9117 22.1085C29.9117 22.1085 29.8066 22.9041 29.1648 23.6425C28.5721 24.3243 27.795 24.7263 26.609 24.7425C26.609 24.7425 26.5717 25.2908 27.0964 25.7648C27.433 26.0641 28.2088 26.161 28.2088 26.161C28.2088 26.161 26.7557 26.4543 26.5955 28.5899C26.5084 29.7472 26.211 30.1497 26.211 30.1497H26.2368C29.6088 30.1497 29.5228 27.2717 29.5228 27.2717C29.5228 27.2717 29.7568 28.1234 30.6979 28.3461C30.8112 28.375 30.9326 28.3868 31.0481 28.3868C31.3506 28.3868 31.6139 28.3161 31.6139 28.3161C31.6139 28.3161 31.121 27.2821 31.6104 25.8357C32.0152 24.6352 31.9501 23.7463 31.9501 23.7463C31.9501 23.7463 32.4041 24.4294 33.5301 24.4359H33.5419C34.4797 24.4359 34.8884 23.7281 34.8884 23.7281C32.6401 22.7992 32.8624 19.802 32.8624 19.802C32.8624 19.802 33.1544 20.0187 33.7228 20.0391ZM8.59631 21.1017C8.74936 23.4639 9.90765 25.1034 11.2618 26.6814C11.9646 27.5001 12.2128 28.2952 12.2128 28.2952C12.2128 28.2952 12.0753 27.3937 11.465 26.6612C10.2037 25.1497 9.0026 23.2681 8.91425 21.0931C8.85093 19.5745 9.24309 18.3438 9.85618 17.3293C9.51411 18.3864 9.56102 19.6797 10.7248 20.8882C10.7248 20.8882 8.40956 18.1276 11.6471 15.2975C12.5658 14.5332 13.5456 13.9766 14.2978 13.5494C14.6056 13.3745 14.8752 13.2214 15.087 13.0845C12.4524 13.9403 11.1652 12.9979 11.1652 12.9979C12.0061 13.7241 13.0956 13.7119 13.772 13.6072L13.7564 13.6147C13.578 13.7012 13.3909 13.792 13.193 13.8991C10.9698 15.0999 8.97391 17.0772 8.63185 19.8143V19.793C8.11578 22.4812 6.96613 23.171 6.96613 23.171C7.88029 22.7223 8.45647 21.5305 8.59631 21.1017ZM12.9166 25.7645C12.58 26.0641 11.8034 26.161 11.8034 26.161C11.8034 26.161 13.2578 26.4539 13.4176 28.5899C13.5046 29.7472 13.7993 30.1492 13.7993 30.1492H13.7756C10.4028 30.1492 10.4893 27.2712 10.4893 27.2712C10.4893 27.2712 10.2538 28.1234 9.31418 28.3461C9.20167 28.375 9.08142 28.3868 8.96391 28.3868C8.66147 28.3868 8.39956 28.3161 8.39956 28.3161C8.39956 28.3161 8.88967 27.2825 8.40093 25.8357C7.99691 24.6352 8.06251 23.7459 8.06251 23.7459C8.06251 23.7459 7.60885 24.4294 6.48198 24.4363H6.4706C5.5332 24.4363 5.12373 23.7281 5.12373 23.7281C7.37062 22.7994 7.15062 19.8021 7.15062 19.8021C7.15062 19.8021 6.85867 20.0188 6.28885 20.0391C6.26791 20.0405 6.24922 20.0405 6.22965 20.0405C4.99027 20.0405 4.57031 18.72 4.57031 18.72H4.59536C4.82402 18.72 6.66418 18.6665 7.96549 17.0201C8.00218 16.9738 8.03858 16.9277 8.07476 16.8819L8.07482 16.8818C8.88418 15.8566 9.58527 14.9687 10.9106 14.6099L11.05 14.5858L11.0796 14.4476C11.1184 14.2372 10.973 14.0387 10.6442 13.8261C8.7298 12.5786 10.0297 10.9875 10.0297 10.9875C10.0297 10.9875 10.5731 12.2599 11.7998 12.2599C11.8143 12.2599 11.8286 12.2596 11.843 12.2592H11.843C11.858 12.2589 11.8731 12.2586 11.889 12.2586L11.9246 12.2566C12.0504 12.2497 12.1743 12.243 12.2971 12.2173L12.5231 12.1733C12.5231 12.1733 12.1728 11.2291 13.0164 10.3628C13.6499 9.70869 14.4215 9.59718 14.8661 9.59718C15.0915 9.59718 15.2323 9.62618 15.2323 9.62618C14.8105 10.176 14.5049 11.089 14.9927 11.652C15.156 11.8394 15.4104 11.9578 15.6608 12.0744C16.0572 12.259 16.4439 12.4389 16.4439 12.8809C16.4439 13.1865 16.1569 13.5432 15.6422 13.8633C14.0931 14.8338 12.5559 16.123 11.9164 17.8488C11.1184 20.0024 12.0184 21.4317 13.3042 22.2512C13.3042 22.2512 12.9007 22.6203 12.3154 22.6674C12.1965 22.6788 12.0817 22.6843 11.971 22.6843C10.7389 22.6843 10.1008 22.1085 10.1008 22.1085C10.1008 22.1085 10.2069 22.9041 10.8446 23.643C11.4408 24.3243 12.2174 24.7263 13.4035 24.7428C13.4035 24.7428 13.4409 25.2908 12.9166 25.7645ZM19.2441 15.5549H20.0397H20.8331V16.0975C20.6468 15.8699 20.2825 15.9166 20.2825 15.9166V16.6985C20.2825 16.6985 20.2966 17.0838 20.4318 17.2501H20.0397H19.6453C19.7828 17.0838 19.7952 16.6985 19.7952 16.6985V15.9166C19.7952 15.9166 19.4322 15.8699 19.2441 16.0975V15.5549ZM17.5122 15.6367C17.5673 15.6956 17.6215 15.7595 17.6743 15.8243L17.6816 15.8331V15.8331C17.6912 15.8447 17.7005 15.856 17.7108 15.8701C17.759 15.934 17.8078 16.002 17.8551 16.0718C17.8612 16.0797 17.8671 16.0884 17.8732 16.0975L17.8791 16.1062L17.8824 16.111L17.8845 16.114L17.887 16.1176C17.9435 16.2024 17.9968 16.2903 18.0496 16.381C18.5361 17.2165 19.314 17.7164 20.005 17.7174C20.6964 17.7164 21.474 17.2165 21.9618 16.381C22.0155 16.2881 22.0702 16.1978 22.1267 16.1135C22.1353 16.1018 22.144 16.0895 22.1517 16.0768C22.1996 16.0048 22.2501 15.9349 22.3026 15.8669C22.3097 15.8577 22.3166 15.849 22.3232 15.8406L22.3344 15.8266C22.3886 15.7595 22.4446 15.6951 22.5015 15.6344C22.5055 15.6306 22.5092 15.6268 22.5128 15.6231V15.6231C22.5181 15.6177 22.5232 15.6125 22.5288 15.6076C22.7766 15.3556 23.0717 15.163 23.4586 15.0564L23.2864 14.9567H23.2772L22.5926 14.5614L21.8894 14.1602L20.0105 15.1784L20.005 15.1738L20.0014 15.1784L18.122 14.1602L17.4192 14.5614L16.7333 14.9567H16.7255L16.552 15.0564C16.9392 15.163 17.2334 15.3533 17.4821 15.6058C17.4864 15.6099 17.4902 15.6142 17.494 15.6185C17.4996 15.6248 17.5052 15.631 17.5122 15.6367ZM19.4062 12.6154V12.105L18.4821 11.718C18.4821 11.718 18.4903 12.0144 18.9061 12.3362C19.1312 12.5129 19.2708 12.5583 19.3014 12.5683C19.3052 12.5695 19.3073 12.5702 19.3078 12.5705L19.4062 12.6154ZM19.8426 11.3237V14.5023L18.3459 13.7176L17.8098 10.6383L19.8426 11.3237ZM20.6052 12.105L21.5293 11.718C21.5293 11.718 21.5216 12.0144 21.1044 12.3362C20.879 12.5138 20.7393 12.5588 20.7092 12.5684C20.7057 12.5696 20.7037 12.5702 20.7032 12.5705L20.6052 12.6154V12.105ZM21.6654 13.7176L22.1997 10.6383L20.1682 11.3237V14.5023L21.6654 13.7176ZM17.5288 21.9551C17.4063 21.9551 17.1659 21.9406 16.9682 21.869C16.75 21.7887 16.4249 21.3903 16.4996 20.9516C16.5938 20.894 16.8124 20.7716 17.0169 20.7716C17.1745 20.7716 17.282 20.8451 17.3576 21.0033C17.4232 21.1406 17.5416 21.2317 17.6245 21.2838C17.6218 21.4121 17.6095 21.611 17.5748 21.7874C17.5671 21.8268 17.5571 21.8631 17.5466 21.8989C17.5426 21.9144 17.5378 21.9283 17.5338 21.9401L17.5315 21.9468C17.5306 21.9497 17.5297 21.9525 17.5288 21.9551ZM20.3707 21.2821L20.3707 21.2821L20.328 21.3236C20.3198 21.3316 20.3144 21.3369 20.312 21.3393L20.2669 21.3837L17.9321 21.347C17.9308 21.5773 17.893 21.7731 17.8565 21.9164C17.8506 21.9404 17.8442 21.9653 17.8378 21.9903L20.6154 22.487C20.9042 22.2863 21.6994 21.7083 22.0083 21.4816C21.7837 21.1557 21.7623 20.7681 21.8133 20.4952C21.6653 20.4019 21.5532 20.2958 21.464 20.1834C21.1429 20.5315 20.5594 21.0987 20.371 21.2817L20.3708 21.282L20.3707 21.2821ZM20.2657 18.162C20.7267 18.1162 21.2423 17.9195 21.7807 17.3887H25.2919C25.139 17.7912 25.0124 18.2268 25.0124 18.6602L25.0137 21.4576C24.4261 21.3592 24.3564 20.73 24.3541 20.7028L24.3437 20.5741L24.2175 20.5632C23.9615 20.5392 23.793 20.4317 23.6499 20.2935C23.3621 20.0065 23.3617 19.5423 23.3621 19.5387C23.3621 19.5391 23.3619 19.5396 23.3617 19.5403C23.3612 19.5413 23.3606 19.5426 23.3599 19.5442C23.3581 19.5479 23.3552 19.5531 23.3515 19.5597C23.2992 19.6554 23.0837 20.0494 23.4086 20.4752C23.5608 20.6756 23.7826 20.7989 24.069 20.8479C24.1364 21.1965 24.397 21.6897 25.0137 21.7645V23.1343H23.2806C22.4817 22.691 22.8206 21.9122 22.8357 21.8791L22.9035 21.7318L22.7504 21.6738C21.885 21.3546 22.1232 20.4957 22.1346 20.458L22.1697 20.3334L22.0522 20.2781C21.3375 19.9481 21.4341 19.0605 21.4436 19.0233C21.2241 19.2005 21.1448 19.5623 21.296 19.9168C21.2187 20.0053 21.116 20.111 21.0027 20.2276L21.0026 20.2277L21.0024 20.2278L20.984 20.2468C20.2439 20.0587 20.2206 19.3818 20.2206 19.3515L20.2188 19.2472L20.1218 19.2096C19.833 19.1031 19.6344 18.9435 19.537 18.7291C19.4272 18.492 19.4659 18.2427 19.496 18.123C19.5807 18.142 19.6645 18.1548 19.7456 18.162C19.8289 18.1706 19.9136 18.1756 20.0002 18.1756H20.0052H20.0116C20.0977 18.1756 20.1815 18.1706 20.2657 18.162ZM17.116 18.6706L17.0686 20.4515L17.2727 20.4823L17.77 18.7735L17.5177 18.2477L17.116 18.6706ZM18.0965 25.1565C18.0929 25.2145 18.1352 25.2634 18.193 25.2648C18.249 25.2699 18.2973 25.2268 18.3027 25.1701C18.305 25.1157 18.2636 25.065 18.2053 25.0628C18.1484 25.0577 18.1015 25.1017 18.0965 25.1565ZM22.6497 26.8479C22.6335 26.8434 22.6161 26.8419 22.601 26.8419C22.5008 26.8419 22.457 26.9299 22.457 26.9299C22.5241 27.109 22.541 27.2376 22.5561 27.3541C22.5732 27.4839 22.5884 27.599 22.6688 27.7528C22.7646 27.9361 22.9237 28.091 23.0212 28.1857C23.039 28.2032 23.055 28.2185 23.0679 28.2319C23.0679 28.2319 23.045 28.3954 23.0215 28.5183L22.8046 29.6394C22.6666 29.6583 22.5217 29.6683 22.3715 29.6752L22.5988 28.5968C22.6319 28.441 22.4435 28.3372 22.1923 28.199C21.9282 28.0537 21.5945 27.8701 21.3758 27.5472C21.1672 27.7808 20.775 27.8505 20.3805 27.8505C20.0207 27.8505 19.6613 27.793 19.4422 27.7499C19.3871 27.7419 19.3343 27.735 19.2819 27.735C19.1557 27.735 19.0405 27.7739 18.9608 27.9068L18.8984 28.0123L17.721 27.7359L17.4276 28.2197C17.3866 28.2974 17.3839 28.3632 17.4504 28.4363L17.5297 28.5228C17.475 28.6932 17.23 28.9517 17.23 28.9517L17.055 28.7341C16.9166 28.5799 16.9394 28.2974 17.0828 28.0365L17.5502 27.2523L18.5477 27.395L18.3933 27.0436C18.2476 26.719 18.3586 26.3328 18.4503 26.0134L18.4503 26.0132C18.49 25.875 18.5261 25.7494 18.5363 25.6465C18.5249 25.7494 18.4297 25.773 18.319 25.773C18.2652 25.773 18.2079 25.7674 18.1548 25.7623C18.1089 25.7577 18.0662 25.7537 18.0316 25.7537C18.002 25.7537 17.9769 25.7568 17.9637 25.7663L17.6932 25.9299L17.4805 25.7428C17.4545 25.707 17.4463 25.6217 17.5087 25.5585L18.002 25.0079L17.4194 24.3301L18.2357 24.7381L18.4853 24.4377C18.5536 24.5039 18.5235 24.6788 18.5235 24.6788C18.7777 24.6852 19.4928 25.0777 19.5306 25.9961C19.532 26.0241 19.532 26.0554 19.532 26.0863C19.532 26.0863 19.5392 26.0972 19.5516 26.1163C19.6021 26.1852 19.7415 26.3619 19.9178 26.3788L21.0464 26.4897H21.0506C21.0982 26.4897 21.164 26.4683 21.2449 26.4419C21.3742 26.3999 21.5422 26.3452 21.737 26.3452C21.9087 26.3452 22.1 26.3888 22.3046 26.517C22.3046 26.517 22.4075 26.4363 22.5737 26.4272C22.5864 26.4263 22.601 26.4263 22.6124 26.4263C23.0377 26.4263 23.2539 26.7477 23.4735 27.0741C23.515 27.1361 23.557 27.1983 23.6004 27.2585C23.8039 27.5472 24.0777 27.9748 24.0777 27.9748C23.9766 28.0932 23.8832 28.1597 23.7261 28.1597C23.6832 28.1597 23.6341 28.1565 23.5804 28.1452C23.2684 28.0883 23.1099 27.6968 22.9726 27.3577C22.8712 27.1072 22.7812 26.8852 22.6497 26.8479ZM16.5853 27.8617C16.5853 27.8617 16.976 27.7017 17.0107 27.5883L16.9583 27.4581C16.9214 27.3739 16.9269 27.2823 16.9979 27.2323L17.4192 26.9428L18.1228 27.0774C18.1228 27.0774 17.9958 26.9188 18.0081 26.7065L17.3358 26.5652L16.7028 26.9488C16.4309 27.1512 16.4113 27.4817 16.501 27.6779L16.5853 27.8617ZM21.983 29.6817C21.8304 29.6817 21.6906 29.6834 21.5649 29.689L21.8955 28.6641C21.9303 28.569 21.8228 28.455 21.716 28.3417C21.6645 28.287 21.6132 28.2325 21.5781 28.1805C21.7412 28.2821 22.1624 28.505 22.3655 28.5943C22.345 28.6274 21.983 29.6817 21.983 29.6817Z" fill="white"/>
<path fill-rule="evenodd" clip-rule="evenodd" d="M22.7863 23.1349H14.9971V18.6607C14.9971 18.2273 14.8695 17.7917 14.7188 17.3892H18.2292C18.563 17.7192 18.8896 17.925 19.2007 18.0379C19.1606 18.197 19.1069 18.5256 19.2567 18.8538C19.3793 19.1181 19.6006 19.3216 19.9217 19.4576C19.9559 19.784 20.1645 20.2754 20.738 20.4925C20.4861 20.745 20.2419 20.983 20.1431 21.0786L17.8129 21.0419C17.76 21.0156 17.6698 20.9563 17.6297 20.8729C17.6273 20.8665 17.6241 20.8617 17.6207 20.8568C17.6179 20.8526 17.615 20.8484 17.6124 20.8429L17.9928 20.9041C18.001 20.905 18.0092 20.905 18.0174 20.905C18.0907 20.905 18.1549 20.8547 18.1668 20.7799C18.1791 20.6956 18.123 20.6185 18.0411 20.6063L17.5728 20.5329L18.0921 18.7486L17.6001 17.7192L16.8126 18.5478L16.7648 20.4028L16.2355 20.3194C16.1535 20.3035 16.0756 20.3624 16.0611 20.4449C16.0488 20.5265 16.1043 20.604 16.1872 20.6185L16.4095 20.6521C16.3303 20.697 16.2779 20.7328 16.2715 20.7378L16.2264 20.769L16.2141 20.8243C16.0852 21.3447 16.3763 21.8389 16.6915 22.0596L16.6796 22.1253C16.6669 22.2051 16.6855 22.2831 16.7338 22.3489C16.7798 22.4156 16.8491 22.4553 16.9288 22.4693C16.9447 22.4727 16.962 22.474 16.9779 22.474C17.1137 22.474 17.233 22.38 17.2658 22.2422C17.3833 22.2569 17.4908 22.2591 17.5642 22.2591H17.6257L20.6829 22.8093L20.7352 22.7749C20.978 22.6058 21.9072 21.9327 22.2115 21.7087C22.2948 21.7808 22.3885 21.8452 22.5021 21.8991C22.4028 22.2282 22.3968 22.7347 22.7863 23.1349ZM14.997 23.4367H25.0112L25.0132 27.1856C25.0132 28.4282 24.2803 29.2958 23.1248 29.5787L23.3183 28.5756L23.3208 28.5613C23.3308 28.5053 23.3417 28.4427 23.3497 28.3896C23.4043 28.4122 23.4623 28.4313 23.5241 28.4427C23.5965 28.4562 23.663 28.4631 23.7241 28.4631C24.0192 28.4631 24.1914 28.3084 24.3059 28.1764L24.4543 28.0042L24.333 27.8158C24.3221 27.7971 24.053 27.3747 23.847 27.0853C23.8065 27.0287 23.7679 26.9716 23.7288 26.9109C23.4937 26.5609 23.1994 26.1231 22.6105 26.1231L22.5572 26.124C22.4605 26.1302 22.3772 26.1489 22.3094 26.1747C22.1245 26.0891 21.9327 26.0438 21.7346 26.0438C21.4909 26.0438 21.2855 26.1104 21.1488 26.1571C21.1367 26.1604 21.125 26.1642 21.1138 26.1676C21.0887 26.1753 21.066 26.1824 21.0468 26.1856L19.9454 26.0778C19.9318 26.0756 19.8862 26.0491 19.8315 25.9844V25.9789L20.0698 25.8838C20.0028 25.0936 19.2408 24.6076 18.8154 24.4431C18.7967 24.3638 18.7584 24.2849 18.6919 24.2204L18.4551 23.9971L18.2469 24.2449L18.1444 24.372L16.6013 23.7409L17.6056 24.9953L17.2098 25.5922C17.0645 25.746 17.2244 25.8991 17.2244 25.8991L17.6338 26.1802L18.0579 26.0224C18.0683 26.0224 18.0776 26.024 18.087 26.0256C18.0912 26.0262 18.0954 26.0269 18.0998 26.0273C18.0881 26.0631 18.0746 26.1578 18.062 26.2467C18.0521 26.3162 18.0427 26.3822 18.0351 26.4131L17.2986 26.2691L16.5252 26.7038C16.1275 26.9947 16.0733 27.4753 16.2209 27.8045L16.3066 27.9911L16.4282 28.2549L16.6996 28.1436C16.7033 28.1431 16.7069 28.1411 16.7088 28.1393C16.6118 28.4484 16.6514 28.7427 16.8245 28.9353L16.9893 29.1407L17.208 29.4153L17.448 29.1593C17.5181 29.0896 17.7477 28.8338 17.8183 28.6158L17.8698 28.4485L17.7532 28.3198L17.7331 28.2971L17.8657 28.0804L18.8267 28.3058L19.0427 28.3556L19.1574 28.1667L19.2203 28.0638C19.2321 28.0416 19.2349 28.0382 19.2795 28.0382C19.3132 28.0382 19.3474 28.0416 19.3843 28.05C19.7473 28.118 20.0816 28.152 20.3781 28.152C20.6665 28.152 20.8386 28.1411 21.0431 28.0736C21.0431 28.0736 21.5592 28.6571 21.577 28.6784L21.2613 29.6498L21.2467 29.7078C20.6487 29.7562 20.3572 29.8869 20.0051 30.2369C19.494 29.7322 19.131 29.6789 17.7568 29.6789C16.1116 29.6789 14.997 28.7187 14.997 27.1856V23.4367Z" fill="#FFDD2D"/>
<path fill-rule="evenodd" clip-rule="evenodd" d="M17.8579 7.75298L17.5955 7.72531L17.3459 7.6954C17.4607 7.95287 17.545 8.1972 17.6056 8.39938C18.2701 8.03267 19.1296 7.82369 20.0032 7.82369C20.8814 7.82369 21.7413 8.03267 22.4037 8.39938C22.4637 8.1972 22.5485 7.95287 22.6632 7.6954L22.4128 7.72531L22.1499 7.75298L22.0392 7.51498L21.7045 6.81144L21.0941 7.1274L20.8563 7.24798L20.6664 7.06122L20.0032 6.40844L19.3414 7.06122L19.1524 7.24798L18.9146 7.1274L18.3015 6.81144L17.9709 7.51498L17.8579 7.75298ZM22.6365 8.99011C22.1177 8.5776 21.1775 8.19002 20.0033 8.19002C18.8309 8.19002 17.8944 8.5776 17.372 8.99011C17.372 8.99011 17.2185 8.06627 16.6919 7.25167L17.6375 7.35864L18.1317 6.3124L19.0841 6.80018L20.0033 5.89355L20.9257 6.80018L21.8758 6.3124L22.371 7.35864L23.3174 7.25167C22.7903 8.06627 22.6365 8.99011 22.6365 8.99011ZM18.204 25.0635C18.1471 25.0582 18.0997 25.1026 18.0952 25.1577C18.0911 25.2153 18.1339 25.2644 18.1917 25.2657C18.2477 25.2702 18.2959 25.2277 18.3014 25.171C18.3037 25.1166 18.2622 25.0657 18.204 25.0635ZM22.8461 32.9242L22.3888 31.6717C22.9325 31.5073 23.8685 31.1528 24.2874 30.9166L24.0083 31.8282L24.9561 32.1413C24.3828 32.4277 23.6877 32.6948 22.8461 32.9242ZM20.0057 34.0499C18.9034 34.0499 17.6454 33.7977 17.2746 33.6664L17.8376 32.1499C18.3045 32.2859 19.2769 32.4297 19.982 32.4253H19.9838H20.0057H20.0248H20.0271C20.7317 32.4297 21.7028 32.2859 22.1724 32.1499L22.7345 33.6664C22.3637 33.7977 21.1057 34.0499 20.0057 34.0499ZM15.0527 32.1413L16.0018 31.8279L15.7208 30.9166C16.1394 31.1526 17.0766 31.507 17.6195 31.6717L17.1618 32.9239C16.3233 32.6946 15.6252 32.4277 15.0527 32.1413ZM24.9988 31.863L24.4217 31.6433L24.581 31.0495L24.7563 30.403C24.7563 30.403 23.7343 30.955 22.2937 31.3695C21.8851 31.4859 21.5758 31.539 21.5758 31.539V31.9795C21.5758 31.9795 20.8051 32.1128 20.0271 32.1128H20.0176H20.0057H19.9907H19.982C19.2027 32.1128 18.4334 31.9795 18.4334 31.9795V31.539C18.4334 31.539 18.1237 31.4859 17.7155 31.3695C16.2749 30.955 15.2541 30.403 15.2541 30.403L15.4267 31.0495L15.5889 31.6433L15.0104 31.863L14.3687 32.1019C14.4391 32.1359 14.5121 32.1713 14.5874 32.2077C15.2983 32.5517 16.213 32.9944 17.0565 33.2239L16.8365 33.8224C16.8365 33.8224 18.0198 34.359 19.9907 34.3639V34.3648H19.9966H20.0057H20.013H20.0176V34.3639C21.9912 34.359 23.1732 33.8224 23.1732 33.8224L22.9523 33.2239C23.8028 32.9924 24.7268 32.5444 25.4385 32.199C25.5074 32.1657 25.5745 32.1333 25.6392 32.1019L24.9988 31.863ZM34.8868 23.7293C34.8868 23.7293 34.4783 24.4373 33.5401 24.4373H33.5285C32.4021 24.4306 31.9485 23.747 31.9485 23.747C31.9485 23.747 32.0132 24.6364 31.6079 25.8362C31.1197 27.2837 31.6123 28.3168 31.6123 28.3168C31.6123 28.3168 31.3488 28.3875 31.0463 28.3875C30.9305 28.3875 30.8099 28.3762 30.6954 28.347C29.755 28.1242 29.5208 27.2719 29.5208 27.2719C29.5208 27.2719 29.607 30.1504 26.235 30.1504H26.2085C26.2085 30.1504 26.5059 29.7479 26.5934 28.591C26.7537 26.4555 28.2068 26.1617 28.2068 26.1617C28.2068 26.1617 27.431 26.0646 27.0954 25.765C26.5692 25.2913 26.6065 24.7433 26.6065 24.7433C27.7932 24.727 28.5708 24.3248 29.1628 23.6435C29.8045 22.905 29.9094 22.1096 29.9094 22.1096C29.9094 22.1096 29.2717 22.6848 28.0381 22.6848C27.9299 22.6848 27.8141 22.6799 27.6948 22.6682C27.1112 22.6213 26.7077 22.2519 26.7077 22.2519C27.9917 21.4328 28.8928 20.0026 28.0939 17.8494C27.4539 16.1241 25.9161 14.8349 24.3674 13.8639C23.8523 13.5439 23.5654 13.1876 23.5654 12.8816C23.5654 12.4396 23.9523 12.2598 24.349 12.0754C24.5997 11.9589 24.8543 11.8406 25.0179 11.6531C25.5057 11.0896 25.1997 10.1771 24.7774 9.62726C24.7774 9.62726 24.9194 9.59824 25.1441 9.59824C25.5899 9.59824 26.3612 9.70931 26.9948 10.3639C27.8363 11.2302 27.4874 12.1744 27.4874 12.1744L27.713 12.2179C27.8414 12.2452 27.9697 12.2514 28.1017 12.2578L28.121 12.2587C28.1361 12.2587 28.1514 12.2592 28.1665 12.2596C28.1819 12.2601 28.1972 12.2605 28.2121 12.2605C29.4348 12.2605 29.9812 10.9881 29.9812 10.9881C29.9812 10.9881 31.2812 12.5792 29.3672 13.8267C29.0379 14.0402 28.8928 14.2383 28.931 14.4482L28.9605 14.5869L29.0968 14.611C30.4237 14.969 31.1239 15.8562 31.9319 16.8799L31.9323 16.8804L31.9368 16.8859L31.9394 16.8892L31.9403 16.8903L31.9428 16.8934L31.9452 16.8967L31.947 16.8988C31.9788 16.9392 32.011 16.9799 32.0432 17.0207C33.3454 18.6676 35.1865 18.7206 35.4139 18.7206H35.439C35.439 18.7206 35.0185 20.0411 33.7801 20.0411C33.759 20.0411 33.7412 20.0411 33.7212 20.0398C33.1523 20.0194 32.8603 19.8032 32.8603 19.8032C32.8603 19.8032 32.6385 22.7999 34.8868 23.7293ZM33.7803 20.4455C35.299 20.4455 35.8072 18.9079 35.8277 18.8422L35.9977 18.3L35.4283 18.3177H35.4263C35.2257 18.3177 33.5494 18.2737 32.3619 16.771L32.2499 16.6318L32.2441 16.6244C31.4701 15.6448 30.7343 14.7137 29.4212 14.2887C29.4597 14.2547 29.5139 14.2125 29.5885 14.164C30.2872 13.7076 30.6934 13.1518 30.7954 12.5072C30.945 11.5376 30.3228 10.7638 30.2954 10.7325L29.8728 10.2125L29.6085 10.8295L29.6081 10.8302C29.5857 10.8798 29.1412 11.8567 28.2125 11.8567H28.1423C28.1259 11.8558 28.1097 11.8549 28.0934 11.854C28.0472 11.8515 28.0017 11.849 27.9574 11.8454C27.9901 11.4052 27.9097 10.723 27.2874 10.0824C26.5399 9.31227 25.6234 9.19622 25.1443 9.19622C24.9185 9.19622 24.7597 9.22091 24.7123 9.22829C24.7059 9.22927 24.7017 9.22995 24.6992 9.23022L24.0608 9.35624L24.4552 9.873C24.7634 10.2715 25.0441 11.0067 24.7117 11.3902C24.6114 11.5058 24.411 11.6007 24.213 11.6945L24.1779 11.7112C23.7483 11.9079 23.1603 12.1831 23.1603 12.8816C23.1603 13.3331 23.5128 13.8064 24.1519 14.2084C26.0425 15.3916 27.2094 16.6269 27.7132 17.99C28.493 20.087 27.4754 21.2832 26.4885 21.9134L26.0448 22.1967L26.4323 22.5513L26.4328 22.5515C26.4872 22.599 26.9603 23.0133 27.6599 23.0728C27.793 23.081 27.9197 23.0888 28.0385 23.0888C28.4872 23.0888 28.8701 23.0186 29.1812 22.9237C29.0957 23.0728 28.9899 23.2257 28.8583 23.3784C28.2934 24.029 27.599 24.325 26.6005 24.3413L26.2292 24.3473L26.201 24.7175C26.1974 24.7924 26.1692 25.479 26.8228 26.0635C26.9225 26.1542 27.0432 26.2284 27.1703 26.2886C26.7268 26.6857 26.2765 27.3775 26.1897 28.5615C26.1159 29.5506 25.8794 29.9162 25.8763 29.9202L25.4659 30.5435L26.2074 30.5535C27.4323 30.5535 28.3697 30.2175 29.0197 29.5506C29.4041 29.1564 29.6237 28.7108 29.7534 28.3168C29.9661 28.4977 30.2412 28.6564 30.6005 28.7406C30.7368 28.7724 30.8852 28.789 31.0465 28.789C31.383 28.789 31.667 28.7199 31.7112 28.7093L31.7143 28.7084L32.1874 28.5833L31.9783 28.1442L31.9774 28.1419C31.9521 28.0828 31.5748 27.2077 31.993 25.9677C32.1761 25.4233 32.2694 24.9359 32.315 24.5566C32.6134 24.7108 33.0123 24.8386 33.5283 24.8404C34.6825 24.8404 35.201 23.9946 35.2379 23.9346L35.2392 23.9324L35.4701 23.5326L35.0425 23.357C33.6459 22.7802 33.3372 21.2307 33.2752 20.3925C33.4014 20.4165 33.5457 20.4387 33.7083 20.4433L33.7803 20.4455ZM32.9983 14.2842C32.6863 13.9632 32.3565 13.8676 32.0737 13.8676C31.6341 13.8676 31.3048 14.0988 31.3048 14.0988C31.943 14.4368 32.307 14.8852 32.6128 15.2618C32.8732 15.5827 33.0914 15.8515 33.401 15.9555C33.5152 15.995 33.6305 16.0122 33.7457 16.0122C34.2421 16.0122 34.7214 15.6926 34.8872 15.3282C34.8872 15.3282 33.9772 15.2728 32.9983 14.2842ZM32.2974 15.5154C32.0081 15.1586 31.6779 14.7561 31.1117 14.456L30.5301 14.1446L31.0703 13.7661L31.0772 13.7616C31.1477 13.7168 31.5448 13.4642 32.0737 13.4642C32.5241 13.4642 32.9428 13.6487 33.2885 13.9991C34.1292 14.8536 34.885 14.9225 34.9123 14.9234L35.4994 14.9578L35.2565 15.4936C35.0157 16.0281 34.3794 16.4139 33.7459 16.4139C33.5828 16.4139 33.4237 16.3894 33.2743 16.3382C32.857 16.2007 32.5888 15.8723 32.3079 15.5284L32.2974 15.5154ZM31.3777 19.7943V19.8147C31.0368 17.0776 29.0401 15.1007 26.8172 13.8994C26.6123 13.7897 26.4219 13.6973 26.2383 13.6084C26.9143 13.7127 28.0043 13.7249 28.845 12.9992C28.845 12.9992 27.5583 13.9411 24.9225 13.0853C25.1339 13.2219 25.4034 13.3748 25.711 13.5494C26.4639 13.9767 27.4452 14.5337 28.3645 15.2984C31.6003 18.1284 29.2854 20.8886 29.2854 20.8886C30.4479 19.6805 30.4961 18.3872 30.1541 17.3301C30.7668 18.345 31.1585 19.5758 31.097 21.0939C31.0077 23.2693 29.807 25.1502 28.5425 26.6615C27.935 27.3953 27.7997 28.2966 27.7997 28.2966C27.7997 28.2966 28.0452 27.501 28.7481 26.6828C30.1021 25.1044 31.261 23.4657 31.4121 21.103C31.5525 21.5318 32.1297 22.723 33.0445 23.1719C33.0445 23.1719 31.8945 22.4824 31.3777 19.7943ZM10.4872 27.2719C10.4872 27.2719 10.4011 30.1504 13.7735 30.1504H13.7976C13.7976 30.1504 13.5025 29.7479 13.4159 28.591C13.2556 26.455 11.8017 26.1617 11.8017 26.1617C11.8017 26.1617 12.5778 26.0648 12.9144 25.765C13.4392 25.2913 13.4018 24.7433 13.4018 24.7433C12.2153 24.727 11.4387 24.3248 10.8425 23.6435C10.2048 22.9053 10.0991 22.1096 10.0991 22.1096C10.0991 22.1096 10.7368 22.6848 11.9689 22.6848C12.0795 22.6848 12.1943 22.6799 12.3137 22.6682C12.8985 22.6215 13.3025 22.2519 13.3025 22.2519C12.0167 21.4328 11.1162 20.0031 11.9142 17.8494C12.5537 16.1241 14.091 14.8349 15.6405 13.8639C16.1552 13.5439 16.4417 13.1876 16.4417 12.8816C16.4417 12.4397 16.0554 12.2598 15.659 12.0754C15.4085 11.9588 15.1541 11.8403 14.9905 11.6527C14.5032 11.0896 14.8083 10.1767 15.2297 9.62729C15.2297 9.62729 15.0898 9.59826 14.8644 9.59826C14.4189 9.59826 13.6482 9.70933 13.0142 10.3639C12.1702 11.2302 12.5209 12.1744 12.5209 12.1744L12.2954 12.2179C12.17 12.2445 12.0435 12.2511 11.9157 12.2577L11.8869 12.2592C11.871 12.2592 11.856 12.2595 11.8412 12.2599H11.8412C11.8267 12.2602 11.8125 12.2606 11.7976 12.2606C10.5714 12.2606 10.0276 10.9886 10.0276 10.9886C10.0276 10.9886 8.72808 12.5792 10.642 13.8267C10.9713 14.0398 11.1162 14.2379 11.0775 14.4482L11.0483 14.5869L10.9089 14.611C9.58272 14.9699 8.88159 15.8579 8.0719 16.8834C8.03595 16.9289 7.99979 16.9747 7.96332 17.0208C6.66248 18.6676 4.82232 18.7207 4.59366 18.7207H4.56815C4.56815 18.7207 4.98857 20.0412 6.22795 20.0412C6.24752 20.0412 6.26619 20.0412 6.2867 20.0398C6.8565 20.0194 7.14848 19.8032 7.14848 19.8032C7.14848 19.8032 7.36848 22.7999 5.12201 23.7293C5.12201 23.7293 5.53106 24.4368 6.46888 24.4368H6.47981C7.60715 24.4306 8.06035 23.747 8.06035 23.747C8.06035 23.747 7.99477 24.6364 8.39877 25.8362C8.8875 27.2837 8.39741 28.3168 8.39741 28.3168C8.39741 28.3168 8.65886 28.3875 8.96221 28.3875C9.07928 28.3875 9.19952 28.3762 9.31201 28.3466C10.2521 28.1242 10.4872 27.2719 10.4872 27.2719ZM14.1312 29.9177C14.1319 29.9188 14.1323 29.9195 14.1323 29.9197L14.5427 30.5435L13.8012 30.5535C12.5764 30.5535 11.6399 30.217 10.9881 29.5508C10.605 29.1564 10.3846 28.7108 10.2557 28.3168C10.0443 28.4977 9.7665 28.6564 9.40712 28.7406C9.2723 28.7724 9.12335 28.789 8.96257 28.789C8.6191 28.789 8.32806 28.7168 8.29519 28.7086L8.29483 28.7084L7.82066 28.5833L8.03063 28.1442L8.03208 28.1408C8.06161 28.0713 8.43203 27.1995 8.01561 25.9677C7.8325 25.4228 7.73915 24.9359 7.69359 24.5566C7.39523 24.7108 6.9967 24.8386 6.48381 24.8399C5.31921 24.8399 4.79983 23.9826 4.76999 23.9335L4.76939 23.9324L4.5389 23.5322L4.96523 23.357C6.36175 22.7802 6.67148 21.2307 6.73479 20.3925C6.60635 20.4165 6.46197 20.4388 6.30163 20.4433L6.2283 20.4456C4.70879 20.4456 4.20186 18.9079 4.18181 18.8422L4.00781 18.3L4.5799 18.3177C4.78077 18.3177 6.45968 18.2737 7.64621 16.771L7.75826 16.6318L7.76623 16.6218C8.53946 15.6431 9.27408 14.7134 10.5877 14.2887C10.5495 14.2547 10.4971 14.2126 10.421 14.164C9.7223 13.7076 9.31557 13.1518 9.21446 12.5072C9.06608 11.5559 9.66306 10.7931 9.70848 10.7351L9.71048 10.7325L10.1377 10.2126L10.401 10.8295C10.4178 10.8685 10.8606 11.8567 11.7979 11.8567H11.8667C11.8825 11.8558 11.8981 11.855 11.9135 11.8541H11.9135H11.9135H11.9136C11.9602 11.8516 12.0056 11.8491 12.0507 11.8454C12.0189 11.4048 12.1004 10.7234 12.723 10.082C13.4705 9.31226 14.3851 9.19622 14.8647 9.19622C15.0922 9.19622 15.25 9.22111 15.2962 9.22838C15.3021 9.22931 15.3062 9.22995 15.3084 9.23022L15.9501 9.35624L15.5539 9.87302C15.2446 10.271 14.964 11.0067 15.297 11.3902C15.3961 11.5046 15.5933 11.5983 15.7893 11.6914L15.8308 11.7112C16.2608 11.9079 16.847 12.1831 16.847 12.8816C16.847 13.3331 16.4972 13.8064 15.8581 14.2085C13.9647 15.3916 12.7996 16.6269 12.2958 17.99C11.5174 20.087 12.5308 21.2828 13.5215 21.9134L13.9647 22.1967L13.5762 22.5513C13.5238 22.5975 13.0492 23.013 12.3477 23.0728C12.2156 23.081 12.0899 23.0888 11.9692 23.0888C11.5192 23.0888 11.1384 23.0186 10.8278 22.9237C10.9143 23.0728 11.02 23.2253 11.1507 23.3784C11.7151 24.0286 12.4115 24.325 13.4067 24.3413L13.7807 24.3473L13.8057 24.7175C13.8103 24.7924 13.8385 25.479 13.1853 26.0635C13.0851 26.1542 12.9663 26.2284 12.8374 26.2886C13.2819 26.6857 13.7319 27.3775 13.8203 28.5615C13.8931 29.5137 14.1135 29.8877 14.1312 29.9177ZM7.00959 14.2837C7.3225 13.9632 7.65183 13.8671 7.93606 13.8671C8.37332 13.8671 8.70446 14.0983 8.70446 14.0983C8.06803 14.4361 7.70379 14.8835 7.39759 15.2597C7.13552 15.5816 6.91597 15.8514 6.60468 15.9555C6.49352 15.9949 6.37783 16.0121 6.26259 16.0121C5.76657 16.0121 5.28603 15.6926 5.12208 15.3281C5.12208 15.3281 6.03212 15.2728 7.00959 14.2837ZM6.26241 16.4138C6.42546 16.4138 6.58397 16.3898 6.73428 16.3386C7.15321 16.2005 7.42157 15.8713 7.70237 15.5269L7.71175 15.5154L7.71992 15.5054C8.00892 15.1515 8.33423 14.7533 8.89601 14.456L9.47903 14.1446L8.93746 13.766L8.93017 13.7614C8.85906 13.7161 8.46368 13.4641 7.93586 13.4641C7.48446 13.4641 7.06541 13.6482 6.7197 13.999C5.87888 14.854 5.12506 14.9229 5.09772 14.9233L4.51106 14.9578L4.75201 15.4936C4.99388 16.028 5.63019 16.4138 6.26241 16.4138ZM9.85448 17.3302C9.24139 18.3451 8.84968 19.5754 8.91299 21.094C9.0009 23.2695 10.2015 25.1506 11.4632 26.6615C12.0736 27.3946 12.2107 28.2966 12.2107 28.2966C12.2107 28.2966 11.9629 27.501 11.2605 26.6824C9.90639 25.1044 8.7481 23.4648 8.59506 21.1031C8.45477 21.5319 7.87859 22.7233 6.96488 23.1719C6.96488 23.1719 8.11408 22.4826 8.63012 19.7939V19.8152C8.97219 17.0777 10.9686 15.1008 13.1918 13.8995C13.3746 13.8013 13.5479 13.7165 13.7129 13.6357L13.7703 13.6076C13.0948 13.7128 12.0048 13.725 11.1635 12.9993C11.1635 12.9993 12.4507 13.9412 15.0857 13.0854C14.8745 13.2218 14.6056 13.3745 14.2987 13.5488L14.2986 13.5488C13.546 13.9762 12.5649 14.5334 11.6454 15.2984C8.4083 18.1285 10.724 20.8891 10.724 20.8891C9.55886 19.6806 9.51241 18.3868 9.85448 17.3302ZM19.2427 15.556V16.0986C19.4309 15.871 19.7938 15.9177 19.7938 15.9177V16.6996C19.7938 16.6996 19.7815 17.0849 19.644 17.2512H20.0384H20.4305C20.2953 17.0849 20.2811 16.6996 20.2811 16.6996V15.9177C20.2811 15.9177 20.6455 15.871 20.8318 16.0986V15.556H20.0384H19.2427ZM19.3003 12.5699C19.2703 12.5601 19.1305 12.5148 18.9047 12.3367C18.4884 12.0154 18.4802 11.7194 18.4802 11.7194L19.4047 12.106V12.6168L19.3063 12.572C19.3058 12.5716 19.3038 12.571 19.3004 12.5699H19.3003ZM21.1029 12.3367C21.5205 12.0154 21.5287 11.7194 21.5287 11.7194L20.6037 12.106V12.6168L20.7016 12.572C20.7021 12.5716 20.7042 12.571 20.7076 12.5699C20.7377 12.5601 20.8774 12.5148 21.1029 12.3367ZM17.7765 10.1002L20.0033 10.9756L22.2308 10.1002C22.0425 9.65371 21.1694 9.27475 20.0033 9.27338C18.8391 9.27475 17.9664 9.65371 17.7765 10.1002ZM20.1669 14.5032L21.664 13.719L22.1979 10.6387L20.1669 11.325V14.5032ZM23.2757 14.9574L22.591 14.5621L21.8877 14.161L20.0088 15.1791L20.0033 15.175L19.9997 15.1791L18.1208 14.161L17.4176 14.5621L16.7316 14.9574H16.7243L16.5508 15.0576C16.9375 15.1637 17.2313 15.3541 17.4809 15.607C17.4849 15.6108 17.4885 15.6149 17.4921 15.6191C17.4977 15.6254 17.5033 15.6319 17.5105 15.6374C17.5656 15.6963 17.6203 15.7607 17.6726 15.825C17.6749 15.8278 17.6772 15.8306 17.6795 15.8333C17.6894 15.8452 17.6991 15.8569 17.7091 15.8713C17.7573 15.9348 17.8061 16.0032 17.8535 16.0726C17.8594 16.0802 17.8652 16.089 17.8711 16.0979C17.8757 16.1048 17.8804 16.1119 17.8853 16.1188C17.9418 16.2031 17.9951 16.2915 18.0479 16.3822C18.5344 17.2176 19.3124 17.7172 20.0033 17.7181C20.6952 17.7172 21.4727 17.2176 21.9601 16.3822C22.0139 16.2892 22.0685 16.1986 22.125 16.1147C22.1332 16.1029 22.1423 16.0902 22.15 16.078C22.1979 16.0059 22.2483 15.9356 22.3008 15.8681C22.3065 15.8606 22.3123 15.8534 22.3179 15.8464C22.323 15.8398 22.3281 15.8334 22.3328 15.8273C22.387 15.7607 22.443 15.6958 22.4999 15.6351C22.5043 15.631 22.5085 15.6268 22.5128 15.6226C22.5174 15.6177 22.5223 15.613 22.5272 15.6088C22.7754 15.3563 23.0701 15.1637 23.4568 15.0576L23.2845 14.9574H23.2757ZM25.0105 18.661C25.0105 18.2276 25.137 17.792 25.2901 17.3894H21.7788C21.2413 17.9202 20.7253 18.1174 20.2639 18.1628C20.1805 18.1714 20.0958 18.1768 20.0102 18.1768H20.0033H19.9983C19.9127 18.1768 19.8271 18.1714 19.7442 18.1628C19.6635 18.156 19.5788 18.1433 19.4941 18.1238C19.464 18.2435 19.4253 18.4923 19.5351 18.7299C19.6335 18.9443 19.8312 19.1043 20.1204 19.2104L20.2179 19.248L20.2192 19.3522C20.2192 19.3835 20.242 20.0599 20.9822 20.2475L20.9867 20.2429C21.1056 20.121 21.2137 20.0102 21.2942 19.918C21.1429 19.563 21.2222 19.2013 21.4422 19.024C21.4326 19.0617 21.3361 19.9488 22.0503 20.2784L22.1683 20.3346L22.1332 20.4597C22.1218 20.4969 21.8836 21.3554 22.7485 21.675L22.9017 21.7321L22.8341 21.8804C22.8188 21.9139 22.4799 22.6926 23.2788 23.1346H25.0119V21.7661C24.3961 21.6909 24.1345 21.1981 24.0672 20.8486C23.7812 20.8001 23.5592 20.6764 23.4068 20.476C23.0821 20.0497 23.2974 19.656 23.3497 19.5605C23.3559 19.5491 23.3599 19.542 23.3603 19.5395C23.3599 19.5436 23.3603 20.0082 23.6485 20.2947C23.7908 20.4325 23.9605 20.5399 24.2157 20.564L24.3419 20.5757L24.3532 20.7036C24.3554 20.7312 24.4243 21.36 25.0119 21.4583L25.0105 18.661ZM23.3188 28.5757L23.1252 29.5788C24.2808 29.2959 25.0137 28.4284 25.0137 27.1859L25.0119 23.437H14.9971V27.1859C14.9971 28.7195 16.1121 29.679 17.7573 29.679C19.132 29.679 19.4941 29.7326 20.0056 30.237C20.3577 29.8873 20.6487 29.7566 21.2473 29.7082L21.2614 29.6497L21.5775 28.6795C21.5597 28.6568 21.0437 28.0739 21.0437 28.0739C20.8387 28.1415 20.6665 28.1528 20.3787 28.1528C20.0821 28.1528 19.7473 28.1184 19.3848 28.0504C19.3483 28.0422 19.3142 28.039 19.28 28.039C19.2354 28.039 19.2331 28.0422 19.2208 28.0639L19.1584 28.1668L19.0436 28.3559L18.8268 28.3059L17.8662 28.0808L17.7346 28.2975L17.7541 28.3206L17.8703 28.4488L17.8184 28.6157C17.7482 28.8342 17.5187 29.0897 17.4485 29.1595L17.2085 29.4166L16.9899 29.141L16.8254 28.9357C16.6528 28.743 16.6127 28.4488 16.7102 28.1393C16.7079 28.1415 16.7038 28.1428 16.7002 28.1437L16.4291 28.2553L16.3075 27.9919L16.2215 27.805C16.0739 27.4755 16.1281 26.995 16.5257 26.7039L17.2991 26.2697L18.0356 26.4139C18.0436 26.3824 18.0532 26.3146 18.0632 26.2435C18.0756 26.1559 18.0887 26.0633 18.1003 26.0277C18.0956 26.027 18.091 26.0264 18.0864 26.0255C18.0772 26.0239 18.068 26.0222 18.058 26.0222L17.6344 26.1799L17.2249 25.8999C17.2249 25.8999 17.0655 25.7457 17.2099 25.5926L17.6057 24.9955L16.6022 23.7413L18.145 24.3722L18.2479 24.2453L18.4561 23.9973L18.6925 24.2208C18.7594 24.2853 18.7977 24.3639 18.8163 24.4433C19.2409 24.6075 20.0033 25.0939 20.0707 25.8844L19.8321 25.9797V25.9846C19.8872 26.0495 19.9318 26.0757 19.9459 26.0784L21.0478 26.1864C21.066 26.1828 21.0873 26.1762 21.1109 26.169C21.1233 26.1653 21.1362 26.1613 21.1498 26.1573C21.286 26.1115 21.4914 26.0439 21.7355 26.0439C21.9337 26.0439 22.125 26.0888 22.3099 26.175C22.3779 26.1497 22.4612 26.1306 22.5581 26.1246L22.611 26.1233C23.2001 26.1233 23.4934 26.5602 23.7283 26.9099L23.7292 26.9113C23.7683 26.9724 23.807 27.0286 23.8477 27.0857C24.0539 27.3748 24.3223 27.797 24.3337 27.8159L24.4548 28.0046L24.3063 28.1768C24.1919 28.3088 24.0194 28.4633 23.7241 28.4633C23.6637 28.4633 23.5977 28.4566 23.5248 28.4428C23.4623 28.431 23.405 28.4126 23.3503 28.3899C23.3417 28.4475 23.3292 28.5164 23.3188 28.5757ZM17.0089 27.5888L16.957 27.459C16.9197 27.3748 16.9247 27.2833 16.9962 27.2335L17.4175 26.9442L18.1211 27.0784C18.1211 27.0784 17.9941 26.9197 18.0063 26.7077L17.3346 26.5662L16.7011 26.9497C16.4292 27.1524 16.4096 27.4826 16.4998 27.679L16.5836 27.8626C16.5836 27.8626 16.9748 27.7026 17.0089 27.5888ZM22.8032 29.6406L23.0197 28.519C23.0437 28.3966 23.0665 28.2326 23.0665 28.2326C23.0543 28.2204 23.0399 28.2064 23.0237 28.1906C22.9265 28.0962 22.7645 27.939 22.667 27.7544C22.5865 27.6004 22.5714 27.485 22.5543 27.3548C22.5392 27.2382 22.5223 27.1097 22.4557 26.9306C22.4557 26.9306 22.499 26.8428 22.5992 26.8428C22.6145 26.8428 22.6319 26.8446 22.6483 26.849C22.7797 26.8862 22.8694 27.1079 22.9708 27.3582C23.1079 27.6973 23.2665 28.089 23.579 28.1464C23.6325 28.1568 23.6814 28.1606 23.7241 28.1606C23.8819 28.1606 23.9752 28.0944 24.0759 27.9755C24.0759 27.9755 23.8025 27.5486 23.599 27.2602C23.5559 27.2002 23.5143 27.1384 23.4728 27.0766C23.2528 26.7493 23.0363 26.427 22.611 26.427C22.5992 26.427 22.5845 26.427 22.5723 26.4288C22.4057 26.4366 22.303 26.5177 22.303 26.5177C22.0986 26.3899 21.9073 26.3464 21.7356 26.3464C21.5407 26.3464 21.3724 26.401 21.243 26.4433C21.1622 26.4695 21.0966 26.491 21.0491 26.491H21.0446L19.9168 26.3795C19.7401 26.363 19.6003 26.1864 19.5501 26.1166C19.5379 26.0979 19.531 26.0866 19.531 26.0866C19.531 26.0566 19.531 26.025 19.5292 25.9973C19.4909 25.0788 18.7763 24.6859 18.5217 24.6795C18.5217 24.6795 18.5517 24.5055 18.4829 24.4384L18.2338 24.7388L17.4176 24.331L18.0006 25.0086L17.5073 25.5599C17.4449 25.6228 17.4526 25.7073 17.4786 25.743L17.6918 25.9306L17.9623 25.7679C17.9755 25.7575 18.0006 25.7548 18.0297 25.7548C18.0643 25.7548 18.107 25.7588 18.1528 25.7633C18.206 25.7684 18.2635 25.7739 18.3176 25.7739C18.4278 25.7739 18.523 25.7506 18.5344 25.6477C18.5242 25.7506 18.4882 25.8762 18.4486 26.0144C18.357 26.3337 18.2462 26.7197 18.3919 27.0444L18.5467 27.3962L17.5487 27.2526L17.0819 28.0377C16.9375 28.2988 16.9152 28.5813 17.0532 28.7353L17.2281 28.9528C17.2281 28.9528 17.4731 28.6946 17.5278 28.5242L17.4485 28.4375C17.3816 28.3639 17.3852 28.2988 17.4262 28.2204L17.7187 27.7375L18.8965 28.0133L18.9594 27.9079C19.0391 27.7757 19.1539 27.7362 19.2801 27.7362C19.3324 27.7362 19.3857 27.7422 19.4408 27.7513C19.6595 27.7942 20.0188 27.8513 20.3787 27.8513C20.7731 27.8513 21.1657 27.781 21.3744 27.5486C21.5928 27.8708 21.9261 28.0544 22.1902 28.1997C22.4417 28.3382 22.6301 28.4419 22.597 28.5979L22.3697 29.6755C22.5199 29.6695 22.6652 29.6595 22.8032 29.6406ZM21.5634 29.6897C21.6886 29.6848 21.8294 29.683 21.981 29.683C21.981 29.683 22.3437 28.6284 22.3641 28.5948C22.1609 28.5059 21.7397 28.2833 21.5766 28.1813C21.6117 28.2337 21.6633 28.2886 21.7151 28.3435C21.8217 28.4566 21.9288 28.5702 21.8936 28.6655L21.5634 29.6897ZM17.1142 18.6718L17.0673 20.4522L17.2709 20.4835L17.7682 18.7742L17.5159 18.2489L17.1142 18.6718ZM17.6224 21.2846C17.54 21.2325 17.4216 21.1414 17.3555 21.0041C17.2808 20.8459 17.1729 20.7725 17.0158 20.7725C16.8108 20.7725 16.5922 20.8948 16.4979 20.9524C16.4232 21.3916 16.7484 21.7896 16.9666 21.8698C17.1642 21.9414 17.4043 21.9564 17.5272 21.9564C17.5289 21.951 17.5308 21.9452 17.533 21.9388C17.5368 21.9274 17.5412 21.9144 17.545 21.9002C17.5555 21.8644 17.5655 21.8277 17.5737 21.7887C17.6078 21.6119 17.6201 21.4129 17.6224 21.2846ZM20.6137 22.4877C20.9025 22.287 21.6982 21.709 22.0065 21.4828C21.782 21.1564 21.7606 20.7688 21.8111 20.4968C21.664 20.403 21.552 20.2965 21.4623 20.1841C21.1213 20.5541 20.4844 21.1709 20.3391 21.3117C20.3236 21.3266 20.3137 21.3362 20.3103 21.3396L20.2652 21.3849L17.9309 21.3477C17.9291 21.5784 17.8917 21.7738 17.8553 21.9175C17.8517 21.9318 17.8479 21.9465 17.844 21.9612C17.8414 21.9713 17.8387 21.9813 17.8361 21.9914L20.6137 22.4877ZM19.2008 18.0376C18.8906 17.9252 18.5636 17.7194 18.2292 17.3894H14.7188C14.8696 17.792 14.9971 18.2276 14.9971 18.661V23.1346H22.7868C22.3974 22.7348 22.4037 22.2286 22.5017 21.9003C22.3888 21.8459 22.2954 21.7811 22.212 21.7095C21.9073 21.9329 20.979 22.6057 20.7353 22.7753L20.6834 22.8093L17.6266 22.2602H17.5642C17.4909 22.2602 17.3839 22.257 17.2663 22.243C17.2336 22.3804 17.1142 22.4737 16.978 22.4737C16.9625 22.4737 16.9452 22.4728 16.9293 22.4697C16.8496 22.4562 16.7803 22.4157 16.7339 22.349C16.6861 22.2837 16.6674 22.2058 16.6806 22.126L16.6915 22.0599C16.3768 21.8391 16.0857 21.3454 16.2146 20.8246L16.2269 20.7693L16.272 20.738C16.2779 20.733 16.3308 20.6972 16.4096 20.6528L16.1878 20.6188C16.1044 20.6043 16.0484 20.5268 16.0616 20.4456C16.0757 20.3631 16.1541 20.3033 16.2361 20.3192L16.7653 20.403L16.8136 18.5485L17.6011 17.7194L18.0926 18.7489L17.5738 20.5327L18.0411 20.6061C18.1236 20.6192 18.1796 20.6959 18.1673 20.7802C18.155 20.855 18.0912 20.9053 18.0174 20.9053C18.0093 20.9053 18.0015 20.9053 17.9933 20.9044L17.6134 20.8436C17.6158 20.849 17.6186 20.8532 17.6215 20.8574C17.6247 20.8621 17.6279 20.8668 17.6303 20.8731C17.6704 20.957 17.7605 21.0159 17.8134 21.0422L20.1432 21.0789L20.1527 21.0697C20.2571 20.9682 20.4948 20.7371 20.7385 20.4923C20.1646 20.2761 19.9564 19.7847 19.9214 19.4579C19.6012 19.3219 19.3798 19.1183 19.2568 18.8541C19.1074 18.5263 19.1603 18.1977 19.2008 18.0376ZM19.8412 11.325L17.8083 10.6387L18.344 13.719L19.8412 14.5032V11.325ZM20.0083 8.782C21.4559 8.782 22.7677 9.47964 22.7677 10.2552L22.7394 10.4461L22.161 13.7489L22.7394 14.0844L24.2443 14.9574H24.239C24.239 14.9574 24.5772 15.1301 24.7317 15.2367C25.307 15.6315 25.4272 16.209 25.0948 16.4474C25.0119 15.9769 24.6388 15.4855 23.9397 15.4855C23.4354 15.4855 23.0519 15.743 22.7394 16.1324C22.6617 16.2303 22.5859 16.335 22.5143 16.4474C22.427 16.5898 22.3403 16.7144 22.2539 16.8341H26.125C25.8394 17.4035 25.5699 18.0059 25.5699 18.661V27.1859C25.5699 29.2497 23.9774 30.2339 22.2517 30.2339C22.1511 30.2339 22.0572 30.2335 21.969 30.2333C20.8873 30.2293 20.6825 30.2286 20.0056 30.903C19.3259 30.2286 19.1208 30.2293 18.0397 30.2333C17.9517 30.2335 17.8578 30.2339 17.7573 30.2339C16.0329 30.2339 14.4382 29.2497 14.4382 27.1859V18.661C14.4382 18.0059 14.1681 17.4035 13.8835 16.8341H17.7542C17.6672 16.7144 17.5797 16.5898 17.4927 16.4474C17.4226 16.335 17.3465 16.2303 17.2663 16.1324C16.9571 15.7444 16.5726 15.4855 16.0689 15.4855C15.3688 15.4855 14.9953 15.9769 14.9133 16.4474C14.5813 16.209 14.7029 15.6315 15.275 15.2367C15.4317 15.1301 15.7696 14.9574 15.7696 14.9574H15.7641L17.2663 14.0844L17.8475 13.7489L17.2691 10.4461L17.2404 10.2552C17.2404 9.47964 18.5522 8.782 19.9997 8.782H20.0033H20.007H20.0083Z" fill="#231F20"/>
</g>
<defs>
<clipPath id="clip0_570_28303">
<rect width="40" height="40" rx="20" fill="white"/>
</clipPath>
</defs>
</svg>
