<svg width="40" height="40" viewBox="0 0 40 40" fill="none" xmlns="http://www.w3.org/2000/svg">
<rect width="40" height="40" rx="20" fill="#009C32"/>
<path d="M34.4923 19.3935C34.0663 18.3584 33.0044 17.7892 31.8585 17.9904L29.5066 18.3929C29.1166 18.462 28.8587 18.8185 28.9247 19.1923C28.9967 19.566 29.3686 19.8133 29.7586 19.75L32.1105 19.3475C32.6684 19.2498 33.0164 19.5718 33.1544 19.9053C33.2924 20.2388 33.2684 20.6989 32.7884 20.9921L29.3326 23.1371C29.0147 23.3383 28.6187 23.3498 28.2887 23.1773C27.9527 23.0048 27.7547 22.6828 27.7547 22.3147V15.3567C27.7547 14.9772 27.4368 14.6667 27.0348 14.6667C26.6388 14.6667 26.3148 14.9772 26.3148 15.3567V22.3032C26.3148 23.1831 26.7948 23.9536 27.5987 24.3734C27.9707 24.5689 28.3727 24.6667 28.7747 24.6667C29.2366 24.6667 29.6986 24.5402 30.1126 24.2814L33.5684 22.1365C34.5463 21.5327 34.9183 20.4286 34.4923 19.3935ZM22.3431 17.9847L19.9912 18.3872C19.6013 18.4562 19.3433 18.8127 19.4093 19.1865C19.4813 19.5603 19.8532 19.8076 20.2432 19.7443L22.5951 19.3418C23.153 19.244 23.501 19.566 23.639 19.8996C23.777 20.2331 23.753 20.6931 23.273 20.9864L19.8172 23.1313C19.4993 23.3326 19.1033 23.3441 18.7733 23.1716C18.4373 22.999 18.2393 22.677 18.2393 22.309V17.0301C18.2393 16.1503 17.7594 15.3797 16.9554 14.9599C16.1515 14.5402 15.2095 14.5747 14.4416 15.0519L5.76014 20.4459C4.7822 21.0554 4.41623 22.1595 4.8422 23.1946C5.26817 24.2296 6.33011 24.7989 7.47603 24.5977L15.0595 23.2923C15.4495 23.2233 15.7075 22.8668 15.6415 22.493C15.5695 22.1192 15.1975 21.872 14.8076 21.9352L7.22405 23.2406C6.66608 23.3383 6.31811 23.0163 6.18011 22.6828C6.04212 22.3492 6.06612 21.8892 6.54609 21.5959L15.2275 16.202C15.5455 16.0008 15.9415 15.9893 16.2715 16.1618C16.6074 16.3343 16.8054 16.6563 16.8054 17.0243V22.3032C16.8054 23.1831 17.2854 23.9536 18.0894 24.3734C18.4613 24.5689 18.8633 24.6667 19.2653 24.6667C19.7272 24.6667 20.1892 24.5402 20.5972 24.2814L24.053 22.1365C25.0309 21.5269 25.3969 20.4228 24.9709 19.3878C24.5509 18.3527 23.489 17.7892 22.3431 17.9847Z" fill="white"/>
</svg>
