<svg width="40" height="40" viewBox="0 0 40 40" fill="none" xmlns="http://www.w3.org/2000/svg">
<g clip-path="url(#clip0_570_28289)">
<path d="M33.413 0H6.655C2.98 0 0 2.976 0 6.644V33.356C0 37.024 2.98 40 6.655 40H33.344C37.018 40 39.999 37.024 39.999 33.356V6.644C40.069 2.976 37.087 0 33.413 0ZM37.989 32.664C37.919 32.734 37.781 32.803 37.711 32.734C32.581 29.619 26.481 27.82 20.034 27.82C13.587 27.82 7.487 29.62 2.357 32.734C2.287 32.803 2.149 32.734 2.08 32.664C2.01 32.526 2.08 32.457 2.149 32.388C6.863 28.788 10.884 24.222 14.003 18.824C17.123 13.426 19.063 7.612 19.826 1.799C19.826 1.73 19.896 1.592 20.034 1.592C20.173 1.592 20.242 1.661 20.242 1.799C21.005 7.612 22.946 13.426 26.065 18.823C29.185 24.221 33.275 28.789 37.919 32.318C38.058 32.457 38.058 32.526 37.989 32.664Z" fill="#FE5000"/>
</g>
<defs>
<clipPath id="clip0_570_28289">
<rect width="40" height="40" rx="20" fill="white"/>
</clipPath>
</defs>
</svg>
