<svg width="30" height="30" viewBox="0 0 30 30" fill="none" xmlns="http://www.w3.org/2000/svg">
<path d="M0.305664 5.62824C0.305664 2.67409 2.69955 0.305664 5.62824 0.305664H24.3719C27.326 0.305664 29.6945 2.69955 29.6945 5.62824V24.3719C29.6945 27.326 27.3006 29.6945 24.3719 29.6945H5.62824C2.67408 29.6945 0.305664 27.3006 0.305664 24.3719V5.62824V5.62824Z" fill="#072DA0"/>
<path d="M24.3973 30H5.62818C2.52122 30 0 27.4788 0 24.3718V5.62818C0 2.52122 2.52122 0 5.62818 0H24.3718C27.4788 0 30 2.52122 30 5.62818V24.3718C30 27.4788 27.4788 30 24.3973 30ZM5.62818 0.611205C2.85229 0.611205 0.611206 2.87776 0.611206 5.62818V24.3718C0.611206 27.1477 2.87776 29.3888 5.62818 29.3888H24.3718C27.1477 29.3888 29.3888 27.1222 29.3888 24.3718V5.62818C29.3888 2.85229 27.1222 0.611205 24.3718 0.611205H5.62818Z" fill="#F8FAFF"/>
<path d="M7.5127 7.5127H10.5178V10.5178H13.5229V13.5229H16.528V16.528H13.5229V19.5331H10.5178V22.5382H7.5127V16.528H10.5178V13.5229H7.5127V7.5127Z" fill="white"/>
<path d="M16.502 19.507V16.502H19.5071V19.507H16.502Z" fill="white"/>
<path d="M19.5078 19.5078H22.5129V22.5129H19.5078V19.5078Z" fill="white"/>
<path d="M16.5022 19.5078H13.4971V22.5129H16.5022V19.5078Z" fill="white"/>
<path d="M19.5073 16.5025V13.4974H16.5022V10.4923H13.4971V7.5127H19.5073V10.5178H22.5124V16.528H19.5073V16.5025Z" fill="white"/>
</svg>
