<svg width="20" height="20" viewBox="0 0 20 20" fill="none" xmlns="http://www.w3.org/2000/svg">
<path d="M17.0833 8.49102H14.6749C12.6999 8.49102 11.0916 6.88268 11.0916 4.90768V2.49935C11.0916 2.04102 10.7166 1.66602 10.2583 1.66602H6.72492C4.15825 1.66602 2.08325 3.33268 2.08325 6.30768V13.691C2.08325 16.666 4.15825 18.3327 6.72492 18.3327H13.2749C15.8416 18.3327 17.9166 16.666 17.9166 13.691V9.32435C17.9166 8.86602 17.5416 8.49102 17.0833 8.49102ZM10.2333 13.1493L8.56659 14.816C8.50825 14.8744 8.43325 14.9243 8.35825 14.9494C8.28325 14.9827 8.20825 14.9993 8.12492 14.9993C8.04158 14.9993 7.96659 14.9827 7.89159 14.9494C7.82492 14.9243 7.75825 14.8744 7.70825 14.8244C7.69992 14.816 7.69158 14.816 7.69158 14.8077L6.02492 13.141C5.78325 12.8994 5.78325 12.4993 6.02492 12.2577C6.26659 12.016 6.66658 12.016 6.90825 12.2577L7.49992 12.866V9.37435C7.49992 9.03268 7.78325 8.74935 8.12492 8.74935C8.46659 8.74935 8.74992 9.03268 8.74992 9.37435V12.866L9.34992 12.266C9.59159 12.0243 9.99158 12.0243 10.2333 12.266C10.4749 12.5077 10.4749 12.9077 10.2333 13.1493Z" fill="#595959"/>
<path d="M14.5251 7.34207C15.3167 7.3504 16.4167 7.3504 17.3584 7.3504C17.8334 7.3504 18.0834 6.79207 17.7501 6.45873C16.5501 5.2504 14.4001 3.0754 13.1667 1.84207C12.8251 1.5004 12.2334 1.73373 12.2334 2.20873V5.11707C12.2334 6.33373 13.2667 7.34207 14.5251 7.34207Z" fill="#595959"/>
</svg>
